<svg width="700" height="433" viewBox="0 0 700 433" fill="none" xmlns="http://www.w3.org/2000/svg">
<path d="M139 69C221.963 74.6566 286.152 77.0135 350.65 77.0135C415.148 77.0135 479.337 74.6566 562.3 69V266.037C562.3 266.037 433.304 258.024 350.65 258.024C267.995 258.024 139 266.037 139 266.037V69Z" fill="#ECEFF1"/>
<path d="M700 0L583.098 73.5353V271.987L700 380.404V0Z" fill="#37474F"/>
<path d="M0 0.471191L116.902 74.0065V272.458L0 380.875V0.471191Z" fill="#37474F"/>
<g filter="url(#filter0_d)">
<path d="M197.98 27.8113C197.98 31.0303 197.346 34.2177 196.114 37.1916C194.882 40.1655 193.076 42.8677 190.8 45.1438C188.524 47.4199 185.822 49.2254 182.848 50.4573C179.874 51.6891 176.687 52.3231 173.468 52.3231C170.249 52.3231 167.061 51.6891 164.088 50.4573C161.114 49.2254 158.412 47.4199 156.135 45.1438C153.859 42.8677 152.054 40.1655 150.822 37.1916C149.59 34.2177 148.956 31.0303 148.956 27.8113L173.468 27.8113H197.98Z" fill="#37474F"/>
</g>
<g filter="url(#filter1_d)">
<path d="M376.161 27.8113C376.161 31.0303 375.527 34.2177 374.295 37.1916C373.064 40.1655 371.258 42.8677 368.982 45.1438C366.706 47.4199 364.004 49.2254 361.03 50.4573C358.056 51.6891 354.868 52.3231 351.649 52.3231C348.431 52.3231 345.243 51.6891 342.269 50.4573C339.295 49.2254 336.593 47.4199 334.317 45.1438C332.041 42.8677 330.235 40.1655 329.004 37.1916C327.772 34.2177 327.138 31.0303 327.138 27.8113L351.649 27.8113H376.161Z" fill="#37474F"/>
</g>
<g filter="url(#filter2_d)">
<path d="M554.343 27.8113C554.343 31.0303 553.709 34.2177 552.478 37.1916C551.246 40.1655 549.44 42.8677 547.164 45.1438C544.888 47.4199 542.186 49.2254 539.212 50.4573C536.238 51.6891 533.051 52.3231 529.832 52.3231C526.613 52.3231 523.425 51.6891 520.451 50.4573C517.477 49.2254 514.775 47.4199 512.499 45.1438C510.223 42.8677 508.418 40.1655 507.186 37.1916C505.954 34.2177 505.32 31.0303 505.32 27.8113L529.832 27.8113H554.343Z" fill="#37474F"/>
</g>
<path d="M176.296 312.88V338.352H212.976V312.88C212.976 308.804 209.41 305.238 204.316 305.238C200.41 304.983 190.232 305.238 183.683 305.238C179.862 305.238 176.296 308.549 176.296 312.88Z" fill="#37474F" stroke="#263238"/>
<path d="M214.505 312.738V338.211H251.185V312.738C251.185 308.662 247.619 305.096 242.525 305.096C238.619 304.842 228.441 305.096 221.892 305.096C218.071 305.096 214.505 308.408 214.505 312.738Z" fill="#37474F" stroke="#263238"/>
<path d="M253.732 313.248V338.72H290.412V313.248C290.412 309.172 286.846 305.606 281.752 305.606C277.846 305.351 267.669 305.606 261.119 305.606C257.298 305.606 253.732 308.918 253.732 313.248Z" fill="#37474F" stroke="#263238"/>
<path d="M331.679 312.738V338.211H368.359V312.738C368.359 308.662 364.793 305.096 359.698 305.096C355.793 304.842 345.615 305.096 339.066 305.096C335.245 305.096 331.679 308.408 331.679 312.738Z" fill="#37474F" stroke="#263238"/>
<path d="M292.96 313.248V338.72H329.64V313.248C329.64 309.172 326.074 305.606 320.98 305.606C317.074 305.351 306.897 305.606 300.347 305.606C296.526 305.606 292.96 308.918 292.96 313.248Z" fill="#37474F" stroke="#263238"/>
<path d="M370.397 312.738V338.211H407.077V312.738C407.077 308.662 403.511 305.096 398.417 305.096C394.511 304.842 384.334 305.096 377.784 305.096C373.963 305.096 370.397 308.408 370.397 312.738Z" fill="#37474F" stroke="#263238"/>
<path d="M447.833 312.738V338.211H484.513V312.738C484.513 308.662 480.947 305.096 475.853 305.096C471.947 304.842 461.77 305.096 455.22 305.096C451.399 305.096 447.833 308.408 447.833 312.738Z" fill="#37474F" stroke="#263238"/>
<path d="M486.552 312.738V338.211H523.232V312.738C523.232 308.662 519.666 305.096 514.572 305.096C510.666 304.842 500.488 305.096 493.939 305.096C490.118 305.096 486.552 308.408 486.552 312.738Z" fill="#37474F" stroke="#263238"/>
<path d="M409.115 312.738V338.211H445.796V312.738C445.796 308.662 442.23 305.096 437.135 305.096C433.229 304.842 423.052 305.096 416.502 305.096C412.681 305.096 409.115 308.408 409.115 312.738Z" fill="#37474F" stroke="#263238"/>
<path d="M156.498 326.958V355.268H197.265V326.958C197.265 322.428 193.302 318.465 187.64 318.465C183.299 318.182 171.987 318.465 164.708 318.465C160.462 318.465 156.498 322.145 156.498 326.958Z" fill="#37474F" stroke="#263238"/>
<path d="M198.964 326.8V355.111H239.731V326.8C239.731 322.271 235.768 318.307 230.105 318.307C225.764 318.024 214.453 318.307 207.174 318.307C202.927 318.307 198.964 321.988 198.964 326.8Z" fill="#37474F" stroke="#263238"/>
<path d="M242.562 327.367V355.678H283.329V327.367C283.329 322.837 279.366 318.874 273.704 318.874C269.363 318.591 258.051 318.874 250.772 318.874C246.525 318.874 242.562 322.554 242.562 327.367Z" fill="#37474F" stroke="#263238"/>
<path d="M329.192 326.8V355.111H369.96V326.8C369.96 322.271 365.996 318.307 360.334 318.307C355.993 318.024 344.682 318.307 337.402 318.307C333.156 318.307 329.192 321.988 329.192 326.8Z" fill="#37474F" stroke="#263238"/>
<path d="M286.16 327.367V355.678H326.927V327.367C326.927 322.837 322.964 318.874 317.302 318.874C312.961 318.591 301.649 318.874 294.37 318.874C290.124 318.874 286.16 322.554 286.16 327.367Z" fill="#37474F" stroke="#263238"/>
<path d="M372.224 326.8V355.111H412.991V326.8C412.991 322.271 409.028 318.307 403.366 318.307C399.025 318.024 387.713 318.307 380.434 318.307C376.188 318.307 372.224 321.988 372.224 326.8Z" fill="#37474F" stroke="#263238"/>
<path d="M458.288 326.8V355.111H499.055V326.8C499.055 322.271 495.091 318.307 489.429 318.307C485.088 318.024 473.777 318.307 466.498 318.307C462.251 318.307 458.288 321.988 458.288 326.8Z" fill="#37474F" stroke="#263238"/>
<path d="M501.32 326.8V355.111H542.087V326.8C542.087 322.271 538.124 318.307 532.462 318.307C528.121 318.024 516.81 318.307 509.53 318.307C505.284 318.307 501.32 321.988 501.32 326.8Z" fill="#37474F" stroke="#263238"/>
<path d="M415.256 326.8V355.111H456.023V326.8C456.023 322.271 452.06 318.307 446.397 318.307C442.056 318.024 430.745 318.307 423.466 318.307C419.219 318.307 415.256 321.988 415.256 326.8Z" fill="#37474F" stroke="#263238"/>
<path d="M98.0469 340.546V376.194H149.38V340.546C149.38 334.842 144.389 329.852 137.259 329.852C131.793 329.495 117.551 329.852 108.385 329.852C103.038 329.852 98.0469 334.486 98.0469 340.546Z" fill="#37474F" stroke="#263238"/>
<path d="M151.519 340.348V375.995H202.851V340.348C202.851 334.644 197.861 329.653 190.731 329.653C185.265 329.297 171.022 329.653 161.856 329.653C156.509 329.653 151.519 334.287 151.519 340.348Z" fill="#37474F" stroke="#263238"/>
<path d="M206.416 341.061V376.708H257.749V341.061C257.749 335.357 252.758 330.366 245.628 330.366C240.162 330.01 225.92 330.366 216.754 330.366C211.407 330.366 206.416 335.001 206.416 341.061Z" fill="#37474F" stroke="#263238"/>
<path d="M315.498 340.348V375.995H366.831V340.348C366.831 334.644 361.84 329.653 354.711 329.653C349.245 329.297 335.002 329.653 325.836 329.653C320.489 329.653 315.498 334.287 315.498 340.348Z" fill="#37474F" stroke="#263238"/>
<path d="M261.313 341.061V376.708H312.646V341.061C312.646 335.357 307.655 330.366 300.526 330.366C295.06 330.01 280.817 330.366 271.651 330.366C266.304 330.366 261.313 335.001 261.313 341.061Z" fill="#37474F" stroke="#263238"/>
<path d="M369.683 340.348V375.995H421.015V340.348C421.015 334.644 416.025 329.653 408.895 329.653C403.429 329.297 389.186 329.653 380.02 329.653C374.673 329.653 369.683 334.287 369.683 340.348Z" fill="#37474F" stroke="#263238"/>
<path d="M478.051 340.348V375.995H529.384V340.348C529.384 334.644 524.393 329.653 517.264 329.653C511.798 329.297 497.555 329.653 488.389 329.653C483.042 329.653 478.051 334.287 478.051 340.348Z" fill="#37474F" stroke="#263238"/>
<path d="M532.236 340.348V375.995H583.569V340.348C583.569 334.644 578.578 329.653 571.449 329.653C565.983 329.297 551.74 329.653 542.574 329.653C537.227 329.653 532.236 334.287 532.236 340.348Z" fill="#37474F" stroke="#263238"/>
<path d="M423.867 340.348V375.995H475.2V340.348C475.2 334.644 470.209 329.653 463.08 329.653C457.614 329.297 443.371 329.653 434.205 329.653C428.858 329.653 423.867 334.287 423.867 340.348Z" fill="#37474F" stroke="#263238"/>
<path d="M360.656 332.708C360.845 332.267 361.001 331.792 361.126 331.294C361.498 329.812 361.601 328.121 361.526 326.489C361.52 326.362 361.513 326.235 361.505 326.109C361.391 324.323 361.069 322.633 360.656 321.395C361.442 322.966 363.202 324.789 363.956 319.509C364.899 312.91 363.956 310.082 360.656 311.967C357.357 311.967 354.528 306.311 346.515 308.196C339.426 309.864 338.973 310.082 336.145 314.324C335.744 318.728 337.18 323.404 338.084 325.637C338.244 326.033 338.388 326.353 338.502 326.58C338.98 327.537 339.404 329.303 340.14 331.294C341.578 335.189 344.207 339.945 350.757 341.193C353.181 340.385 355.017 339.342 356.414 338.248C359.093 336.151 360.159 333.87 360.656 332.708Z" fill="#263238"/>
<path d="M338.502 326.58C338.388 326.353 338.244 326.033 338.084 325.637C337.123 324.694 335.296 324.694 335.673 326.58C336.145 328.937 337.064 332.237 340.14 331.294C339.404 329.303 338.98 327.537 338.502 326.58Z" fill="#263238"/>
<path d="M350.757 341.193C347.877 340.644 345.754 339.416 344.158 337.882V341.664H356.414V338.248C355.017 339.342 353.181 340.385 350.757 341.193Z" fill="#263238"/>
<path d="M361.526 326.489C361.601 328.121 361.498 329.812 361.126 331.294C363.956 331.294 363.013 329.408 363.956 327.051C364.67 325.266 362.466 325.166 361.505 326.109C361.513 326.235 361.52 326.362 361.526 326.489Z" fill="#263238"/>
<path d="M350.757 341.193C344.207 339.945 341.578 335.189 340.14 331.294M350.757 341.193C353.181 340.385 355.017 339.342 356.414 338.248M350.757 341.193C347.877 340.644 345.754 339.416 344.158 337.882V341.664H356.414V338.248M360.656 332.708C360.159 333.87 359.093 336.151 356.414 338.248M360.656 332.708C360.845 332.267 361.001 331.792 361.126 331.294M360.656 332.708C361.408 330.955 361.627 328.67 361.526 326.489M360.656 321.395C361.442 322.966 363.202 324.789 363.956 319.509C364.899 312.91 363.956 310.082 360.656 311.967C357.357 311.967 354.528 306.311 346.515 308.196C339.426 309.864 338.973 310.082 336.145 314.324C335.744 318.728 337.18 323.404 338.084 325.637M360.656 321.395C361.069 322.633 361.391 324.323 361.505 326.109M360.656 321.395C361.098 322.72 361.437 324.564 361.526 326.489M338.084 325.637C338.244 326.033 338.388 326.353 338.502 326.58C338.98 327.537 339.404 329.303 340.14 331.294M338.084 325.637C337.123 324.694 335.296 324.694 335.673 326.58C336.145 328.937 337.064 332.237 340.14 331.294M361.505 326.109C362.466 325.166 364.67 325.266 363.956 327.051C363.013 329.408 363.956 331.294 361.126 331.294M361.505 326.109C361.513 326.235 361.52 326.362 361.526 326.489M361.126 331.294C361.498 329.812 361.601 328.121 361.526 326.489" stroke="#263238"/>
<path d="M399.745 288.013C399.745 296.084 392.359 302.626 383.247 302.626C380.709 302.626 378.305 302.118 376.158 301.212C374.243 300.404 370.527 297.864 369.106 296.498C366.398 293.895 366.749 291.832 366.749 288.013C366.749 279.943 374.135 273.4 383.247 273.4C392.359 273.4 399.745 279.943 399.745 288.013Z" fill="#37474F"/>
<path d="M369.106 296.498L368.163 304.511L376.158 301.212C374.243 300.404 370.527 297.864 369.106 296.498Z" fill="#37474F"/>
<path d="M379.933 296.499C379.933 295.084 381.347 294.142 382.761 294.142C384.175 294.142 385.589 295.084 385.589 296.499C385.589 297.913 384.175 298.855 382.761 298.855C381.347 298.855 379.933 297.913 379.933 296.499Z" fill="#263238"/>
<path d="M378.99 284.478L375.219 282.121C383.232 272.693 396.902 282.121 387.946 287.778C386.532 289.192 385.589 291.077 385.589 292.491H381.347C381.347 291.077 382.289 288.249 384.175 287.306C388.417 283.064 380.875 280.707 378.99 284.478Z" fill="#263238"/>
<path d="M65.9932 354.647V396.248H125.898V354.647C125.898 347.991 120.074 342.167 111.754 342.167C105.375 341.751 88.7537 342.167 78.0573 342.167C71.8172 342.167 65.9932 347.575 65.9932 354.647Z" fill="#37474F" stroke="#263238"/>
<path d="M128.394 354.416V396.017H188.299V354.416C188.299 347.76 182.475 341.936 174.155 341.936C167.776 341.52 151.155 341.936 140.458 341.936C134.218 341.936 128.394 347.344 128.394 354.416Z" fill="#37474F" stroke="#263238"/>
<path d="M192.458 355.248V396.848H252.363V355.248C252.363 348.592 246.539 342.768 238.219 342.768C231.84 342.352 215.219 342.768 204.523 342.768C198.283 342.768 192.458 348.176 192.458 355.248Z" fill="#37474F" stroke="#263238"/>
<path d="M319.756 354.416V396.017H379.661V354.416C379.661 347.76 373.837 341.936 365.517 341.936C359.138 341.52 342.517 341.936 331.821 341.936C325.58 341.936 319.756 347.344 319.756 354.416Z" fill="#37474F" stroke="#263238"/>
<path d="M256.523 355.248V396.848H316.428V355.248C316.428 348.592 310.604 342.768 302.284 342.768C295.905 342.352 279.284 342.768 268.588 342.768C262.348 342.768 256.523 348.176 256.523 355.248Z" fill="#37474F" stroke="#263238"/>
<path d="M382.989 354.416V396.017H442.894V354.416C442.894 347.76 437.07 341.936 428.75 341.936C422.371 341.52 405.75 341.936 395.053 341.936C388.813 341.936 382.989 347.344 382.989 354.416Z" fill="#37474F" stroke="#263238"/>
<path d="M509.455 354.416V396.017H569.359V354.416C569.359 347.76 563.535 341.936 555.215 341.936C548.836 341.52 532.215 341.936 521.519 341.936C515.279 341.936 509.455 347.344 509.455 354.416Z" fill="#37474F" stroke="#263238"/>
<path d="M572.688 354.416V396.017H632.593V354.416C632.593 347.76 626.769 341.936 618.449 341.936C612.07 341.52 595.449 341.936 584.752 341.936C578.512 341.936 572.688 347.344 572.688 354.416Z" fill="#37474F" stroke="#263238"/>
<path d="M446.222 354.416V396.017H506.127V354.416C506.127 347.76 500.303 341.936 491.983 341.936C485.604 341.52 468.983 341.936 458.286 341.936C452.046 341.936 446.222 347.344 446.222 354.416Z" fill="#37474F" stroke="#263238"/>
<path d="M28.2827 383.704V430.842H96.1616V383.704C96.1616 376.162 89.5622 369.562 80.1346 369.562C72.9067 369.091 54.073 369.562 41.9527 369.562C34.882 369.562 28.2827 375.69 28.2827 383.704Z" fill="#37474F" stroke="#263238"/>
<path d="M98.9902 383.442V430.58H166.869V383.442C166.869 375.9 160.27 369.301 150.842 369.301C143.614 368.829 124.781 369.301 112.66 369.301C105.59 369.301 98.9902 375.428 98.9902 383.442Z" fill="#37474F" stroke="#263238"/>
<path d="M171.583 384.384V431.522H239.461V384.384C239.461 376.842 232.862 370.243 223.434 370.243C216.207 369.772 197.373 370.243 185.253 370.243C178.182 370.243 171.583 376.371 171.583 384.384Z" fill="#37474F" stroke="#263238"/>
<path d="M315.825 383.442V430.58H383.704V383.442C383.704 375.9 377.105 369.301 367.677 369.301C360.449 368.829 341.615 369.301 329.495 369.301C322.425 369.301 315.825 375.428 315.825 383.442Z" fill="#37474F" stroke="#263238"/>
<path d="M244.175 384.384V431.522H312.054V384.384C312.054 376.842 305.455 370.243 296.027 370.243C288.799 369.772 269.966 370.243 257.845 370.243C250.775 370.243 244.175 376.371 244.175 384.384Z" fill="#37474F" stroke="#263238"/>
<path d="M387.475 383.442V430.58H455.353V383.442C455.353 375.9 448.754 369.301 439.326 369.301C432.099 368.829 413.265 369.301 401.145 369.301C394.074 369.301 387.475 375.428 387.475 383.442Z" fill="#37474F" stroke="#263238"/>
<path d="M530.774 383.442V430.58H598.653V383.442C598.653 375.9 592.054 369.301 582.626 369.301C575.398 368.829 556.565 369.301 544.444 369.301C537.374 369.301 530.774 375.428 530.774 383.442Z" fill="#37474F" stroke="#263238"/>
<path d="M602.424 383.442V430.58H670.303V383.442C670.303 375.9 663.703 369.301 654.276 369.301C647.048 368.829 628.214 369.301 616.094 369.301C609.023 369.301 602.424 375.428 602.424 383.442Z" fill="#37474F" stroke="#263238"/>
<path d="M459.125 383.442V430.58H527.003V383.442C527.003 375.9 520.404 369.301 510.976 369.301C503.749 368.829 484.915 369.301 472.795 369.301C465.724 369.301 459.125 375.428 459.125 383.442Z" fill="#37474F" stroke="#263238"/>
<path d="M227.518 145.6V161H225.714L216.474 149.516V161H214.274V145.6H216.078L225.318 157.084V145.6H227.518ZM240.18 161.176C238.625 161.176 237.225 160.839 235.978 160.164C234.731 159.475 233.749 158.529 233.03 157.326C232.326 156.123 231.974 154.781 231.974 153.3C231.974 151.819 232.326 150.477 233.03 149.274C233.749 148.071 234.731 147.133 235.978 146.458C237.225 145.769 238.625 145.424 240.18 145.424C241.72 145.424 243.113 145.769 244.36 146.458C245.607 147.133 246.582 148.071 247.286 149.274C247.99 150.462 248.342 151.804 248.342 153.3C248.342 154.796 247.99 156.145 247.286 157.348C246.582 158.536 245.607 159.475 244.36 160.164C243.113 160.839 241.72 161.176 240.18 161.176ZM240.18 159.218C241.309 159.218 242.321 158.961 243.216 158.448C244.125 157.935 244.837 157.231 245.35 156.336C245.878 155.427 246.142 154.415 246.142 153.3C246.142 152.185 245.878 151.181 245.35 150.286C244.837 149.377 244.125 148.665 243.216 148.152C242.321 147.639 241.309 147.382 240.18 147.382C239.051 147.382 238.024 147.639 237.1 148.152C236.191 148.665 235.472 149.377 234.944 150.286C234.431 151.181 234.174 152.185 234.174 153.3C234.174 154.415 234.431 155.427 234.944 156.336C235.472 157.231 236.191 157.935 237.1 158.448C238.024 158.961 239.051 159.218 240.18 159.218ZM264.301 161.176C263.142 161.176 262.02 161 260.935 160.648C259.864 160.281 259.021 159.812 258.405 159.24L259.219 157.524C259.805 158.052 260.553 158.485 261.463 158.822C262.387 159.145 263.333 159.306 264.301 159.306C265.577 159.306 266.53 159.093 267.161 158.668C267.791 158.228 268.107 157.649 268.107 156.93C268.107 156.402 267.931 155.977 267.579 155.654C267.241 155.317 266.816 155.06 266.303 154.884C265.804 154.708 265.093 154.51 264.169 154.29C263.01 154.011 262.071 153.733 261.353 153.454C260.649 153.175 260.04 152.75 259.527 152.178C259.028 151.591 258.779 150.807 258.779 149.824C258.779 149.003 258.991 148.262 259.417 147.602C259.857 146.942 260.517 146.414 261.397 146.018C262.277 145.622 263.369 145.424 264.675 145.424C265.584 145.424 266.479 145.541 267.359 145.776C268.239 146.011 268.994 146.348 269.625 146.788L268.899 148.548C268.253 148.137 267.564 147.829 266.831 147.624C266.097 147.404 265.379 147.294 264.675 147.294C263.428 147.294 262.489 147.521 261.859 147.976C261.243 148.431 260.935 149.017 260.935 149.736C260.935 150.264 261.111 150.697 261.463 151.034C261.815 151.357 262.247 151.613 262.761 151.804C263.289 151.98 264 152.171 264.895 152.376C266.053 152.655 266.985 152.933 267.689 153.212C268.393 153.491 268.994 153.916 269.493 154.488C270.006 155.06 270.263 155.83 270.263 156.798C270.263 157.605 270.043 158.345 269.603 159.02C269.163 159.68 268.495 160.208 267.601 160.604C266.706 160.985 265.606 161.176 264.301 161.176ZM285.753 159.086V161H274.577V145.6H285.445V147.514H276.777V152.244H284.499V154.114H276.777V159.086H285.753ZM308.599 159.086V161H297.423V145.6H308.291V147.514H299.623V152.244H307.345V154.114H299.623V159.086H308.599ZM326.506 145.6V161H324.702L315.462 149.516V161H313.262V145.6H315.066L324.306 157.084V145.6H326.506ZM339.101 161.176C337.561 161.176 336.168 160.839 334.921 160.164C333.689 159.475 332.721 158.536 332.017 157.348C331.313 156.145 330.961 154.796 330.961 153.3C330.961 151.804 331.313 150.462 332.017 149.274C332.721 148.071 333.696 147.133 334.943 146.458C336.19 145.769 337.583 145.424 339.123 145.424C340.326 145.424 341.426 145.629 342.423 146.04C343.42 146.436 344.271 147.03 344.975 147.822L343.545 149.208C342.386 147.991 340.942 147.382 339.211 147.382C338.067 147.382 337.033 147.639 336.109 148.152C335.185 148.665 334.459 149.377 333.931 150.286C333.418 151.181 333.161 152.185 333.161 153.3C333.161 154.415 333.418 155.427 333.931 156.336C334.459 157.231 335.185 157.935 336.109 158.448C337.033 158.961 338.067 159.218 339.211 159.218C340.927 159.218 342.372 158.602 343.545 157.37L344.975 158.756C344.271 159.548 343.413 160.149 342.401 160.56C341.404 160.971 340.304 161.176 339.101 161.176ZM355.843 161.176C354.289 161.176 352.888 160.839 351.641 160.164C350.395 159.475 349.412 158.529 348.693 157.326C347.989 156.123 347.637 154.781 347.637 153.3C347.637 151.819 347.989 150.477 348.693 149.274C349.412 148.071 350.395 147.133 351.641 146.458C352.888 145.769 354.289 145.424 355.843 145.424C357.383 145.424 358.777 145.769 360.023 146.458C361.27 147.133 362.245 148.071 362.949 149.274C363.653 150.462 364.005 151.804 364.005 153.3C364.005 154.796 363.653 156.145 362.949 157.348C362.245 158.536 361.27 159.475 360.023 160.164C358.777 160.839 357.383 161.176 355.843 161.176ZM355.843 159.218C356.973 159.218 357.985 158.961 358.879 158.448C359.789 157.935 360.5 157.231 361.013 156.336C361.541 155.427 361.805 154.415 361.805 153.3C361.805 152.185 361.541 151.181 361.013 150.286C360.5 149.377 359.789 148.665 358.879 148.152C357.985 147.639 356.973 147.382 355.843 147.382C354.714 147.382 353.687 147.639 352.763 148.152C351.854 148.665 351.135 149.377 350.607 150.286C350.094 151.181 349.837 152.185 349.837 153.3C349.837 154.415 350.094 155.427 350.607 156.336C351.135 157.231 351.854 157.935 352.763 158.448C353.687 158.961 354.714 159.218 355.843 159.218ZM381.712 145.6V161H379.908L370.668 149.516V161H368.468V145.6H370.272L379.512 157.084V145.6H381.712ZM390.479 147.514H385.199V145.6H397.937V147.514H392.657V161H390.479V147.514ZM411.729 161L408.407 156.27C407.997 156.299 407.674 156.314 407.439 156.314H403.633V161H401.433V145.6H407.439C409.434 145.6 411.003 146.077 412.147 147.03C413.291 147.983 413.863 149.296 413.863 150.968C413.863 152.156 413.57 153.168 412.983 154.004C412.397 154.84 411.561 155.449 410.475 155.83L414.127 161H411.729ZM407.373 154.444C408.767 154.444 409.83 154.143 410.563 153.542C411.297 152.941 411.663 152.083 411.663 150.968C411.663 149.853 411.297 149.003 410.563 148.416C409.83 147.815 408.767 147.514 407.373 147.514H403.633V154.444H407.373ZM428.33 157.15H420.146L418.452 161H416.186L423.16 145.6H425.338L432.334 161H430.024L428.33 157.15ZM427.56 155.39L424.238 147.844L420.916 155.39H427.56ZM446.027 161L442.705 156.27C442.294 156.299 441.972 156.314 441.737 156.314H437.931V161H435.731V145.6H441.737C443.732 145.6 445.301 146.077 446.445 147.03C447.589 147.983 448.161 149.296 448.161 150.968C448.161 152.156 447.868 153.168 447.281 154.004C446.694 154.84 445.858 155.449 444.773 155.83L448.425 161H446.027ZM441.671 154.444C443.064 154.444 444.128 154.143 444.861 153.542C445.594 152.941 445.961 152.083 445.961 150.968C445.961 149.853 445.594 149.003 444.861 148.416C444.128 147.815 443.064 147.514 441.671 147.514H437.931V154.444H441.671ZM459.767 161.176C458.213 161.176 456.812 160.839 455.565 160.164C454.319 159.475 453.336 158.529 452.617 157.326C451.913 156.123 451.561 154.781 451.561 153.3C451.561 151.819 451.913 150.477 452.617 149.274C453.336 148.071 454.319 147.133 455.565 146.458C456.812 145.769 458.213 145.424 459.767 145.424C461.307 145.424 462.701 145.769 463.947 146.458C465.194 147.133 466.169 148.071 466.873 149.274C467.577 150.462 467.929 151.804 467.929 153.3C467.929 154.796 467.577 156.145 466.873 157.348C466.169 158.536 465.194 159.475 463.947 160.164C462.701 160.839 461.307 161.176 459.767 161.176ZM459.767 159.218C460.897 159.218 461.909 158.961 462.803 158.448C463.713 157.935 464.424 157.231 464.937 156.336C465.465 155.427 465.729 154.415 465.729 153.3C465.729 152.185 465.465 151.181 464.937 150.286C464.424 149.377 463.713 148.665 462.803 148.152C461.909 147.639 460.897 147.382 459.767 147.382C458.638 147.382 457.611 147.639 456.687 148.152C455.778 148.665 455.059 149.377 454.531 150.286C454.018 151.181 453.761 152.185 453.761 153.3C453.761 154.415 454.018 155.427 454.531 156.336C455.059 157.231 455.778 157.935 456.687 158.448C457.611 158.961 458.638 159.218 459.767 159.218ZM485.636 145.6V161H483.832L474.592 149.516V161H472.392V145.6H474.196L483.436 157.084V145.6H485.636ZM282.166 188L278.844 183.27C278.433 183.299 278.11 183.314 277.876 183.314H274.07V188H271.87V172.6H277.876C279.87 172.6 281.44 173.077 282.584 174.03C283.728 174.983 284.3 176.296 284.3 177.968C284.3 179.156 284.006 180.168 283.42 181.004C282.833 181.84 281.997 182.449 280.912 182.83L284.564 188H282.166ZM277.81 181.444C279.203 181.444 280.266 181.143 281 180.542C281.733 179.941 282.1 179.083 282.1 177.968C282.1 176.853 281.733 176.003 281 175.416C280.266 174.815 279.203 174.514 277.81 174.514H274.07V181.444H277.81ZM300.13 186.086V188H288.954V172.6H299.822V174.514H291.154V179.244H298.876V181.114H291.154V186.086H300.13ZM309.28 188.176C308.122 188.176 307 188 305.914 187.648C304.844 187.281 304 186.812 303.384 186.24L304.198 184.524C304.785 185.052 305.533 185.485 306.442 185.822C307.366 186.145 308.312 186.306 309.28 186.306C310.556 186.306 311.51 186.093 312.14 185.668C312.771 185.228 313.086 184.649 313.086 183.93C313.086 183.402 312.91 182.977 312.558 182.654C312.221 182.317 311.796 182.06 311.282 181.884C310.784 181.708 310.072 181.51 309.148 181.29C307.99 181.011 307.051 180.733 306.332 180.454C305.628 180.175 305.02 179.75 304.506 179.178C304.008 178.591 303.758 177.807 303.758 176.824C303.758 176.003 303.971 175.262 304.396 174.602C304.836 173.942 305.496 173.414 306.376 173.018C307.256 172.622 308.349 172.424 309.654 172.424C310.564 172.424 311.458 172.541 312.338 172.776C313.218 173.011 313.974 173.348 314.604 173.788L313.878 175.548C313.233 175.137 312.544 174.829 311.81 174.624C311.077 174.404 310.358 174.294 309.654 174.294C308.408 174.294 307.469 174.521 306.838 174.976C306.222 175.431 305.914 176.017 305.914 176.736C305.914 177.264 306.09 177.697 306.442 178.034C306.794 178.357 307.227 178.613 307.74 178.804C308.268 178.98 308.98 179.171 309.874 179.376C311.033 179.655 311.964 179.933 312.668 180.212C313.372 180.491 313.974 180.916 314.472 181.488C314.986 182.06 315.242 182.83 315.242 183.798C315.242 184.605 315.022 185.345 314.582 186.02C314.142 186.68 313.475 187.208 312.58 187.604C311.686 187.985 310.586 188.176 309.28 188.176ZM325.936 188.176C323.883 188.176 322.284 187.589 321.14 186.416C319.996 185.243 319.424 183.556 319.424 181.356V172.6H321.624V181.268C321.624 184.568 323.069 186.218 325.958 186.218C327.366 186.218 328.444 185.815 329.192 185.008C329.94 184.187 330.314 182.94 330.314 181.268V172.6H332.448V181.356C332.448 183.571 331.876 185.265 330.732 186.438C329.588 187.597 327.99 188.176 325.936 188.176ZM338.059 172.6H340.259V186.086H348.597V188H338.059V172.6ZM353.84 174.514H348.56V172.6H361.298V174.514H356.018V188H353.84V174.514ZM373.833 184.15H365.649L363.955 188H361.689L368.663 172.6H370.841L377.837 188H375.527L373.833 184.15ZM373.063 182.39L369.741 174.844L366.419 182.39H373.063ZM381.234 172.6H387.724C389.352 172.6 390.796 172.923 392.058 173.568C393.319 174.213 394.294 175.123 394.984 176.296C395.688 177.455 396.04 178.789 396.04 180.3C396.04 181.811 395.688 183.153 394.984 184.326C394.294 185.485 393.319 186.387 392.058 187.032C390.796 187.677 389.352 188 387.724 188H381.234V172.6ZM387.592 186.086C388.838 186.086 389.931 185.844 390.87 185.36C391.823 184.876 392.556 184.201 393.07 183.336C393.583 182.456 393.84 181.444 393.84 180.3C393.84 179.156 393.583 178.151 393.07 177.286C392.556 176.406 391.823 175.724 390.87 175.24C389.931 174.756 388.838 174.514 387.592 174.514H383.434V186.086H387.592ZM407.462 188.176C405.907 188.176 404.506 187.839 403.26 187.164C402.013 186.475 401.03 185.529 400.312 184.326C399.608 183.123 399.256 181.781 399.256 180.3C399.256 178.819 399.608 177.477 400.312 176.274C401.03 175.071 402.013 174.133 403.26 173.458C404.506 172.769 405.907 172.424 407.462 172.424C409.002 172.424 410.395 172.769 411.642 173.458C412.888 174.133 413.864 175.071 414.568 176.274C415.272 177.462 415.624 178.804 415.624 180.3C415.624 181.796 415.272 183.145 414.568 184.348C413.864 185.536 412.888 186.475 411.642 187.164C410.395 187.839 409.002 188.176 407.462 188.176ZM407.462 186.218C408.591 186.218 409.603 185.961 410.498 185.448C411.407 184.935 412.118 184.231 412.632 183.336C413.16 182.427 413.424 181.415 413.424 180.3C413.424 179.185 413.16 178.181 412.632 177.286C412.118 176.377 411.407 175.665 410.498 175.152C409.603 174.639 408.591 174.382 407.462 174.382C406.332 174.382 405.306 174.639 404.382 175.152C403.472 175.665 402.754 176.377 402.226 177.286C401.712 178.181 401.456 179.185 401.456 180.3C401.456 181.415 401.712 182.427 402.226 183.336C402.754 184.231 403.472 184.935 404.382 185.448C405.306 185.961 406.332 186.218 407.462 186.218ZM424.574 188.176C423.416 188.176 422.294 188 421.208 187.648C420.138 187.281 419.294 186.812 418.678 186.24L419.492 184.524C420.079 185.052 420.827 185.485 421.736 185.822C422.66 186.145 423.606 186.306 424.574 186.306C425.85 186.306 426.804 186.093 427.434 185.668C428.065 185.228 428.38 184.649 428.38 183.93C428.38 183.402 428.204 182.977 427.852 182.654C427.515 182.317 427.09 182.06 426.576 181.884C426.078 181.708 425.366 181.51 424.442 181.29C423.284 181.011 422.345 180.733 421.626 180.454C420.922 180.175 420.314 179.75 419.8 179.178C419.302 178.591 419.052 177.807 419.052 176.824C419.052 176.003 419.265 175.262 419.69 174.602C420.13 173.942 420.79 173.414 421.67 173.018C422.55 172.622 423.643 172.424 424.948 172.424C425.858 172.424 426.752 172.541 427.632 172.776C428.512 173.011 429.268 173.348 429.898 173.788L429.172 175.548C428.527 175.137 427.838 174.829 427.104 174.624C426.371 174.404 425.652 174.294 424.948 174.294C423.702 174.294 422.763 174.521 422.132 174.976C421.516 175.431 421.208 176.017 421.208 176.736C421.208 177.264 421.384 177.697 421.736 178.034C422.088 178.357 422.521 178.613 423.034 178.804C423.562 178.98 424.274 179.171 425.168 179.376C426.327 179.655 427.258 179.933 427.962 180.212C428.666 180.491 429.268 180.916 429.766 181.488C430.28 182.06 430.536 182.83 430.536 183.798C430.536 184.605 430.316 185.345 429.876 186.02C429.436 186.68 428.769 187.208 427.874 187.604C426.98 187.985 425.88 188.176 424.574 188.176Z" fill="black"/>
<defs>
<filter id="filter0_d" x="135.956" y="20.8113" width="75.0236" height="50.5118" filterUnits="userSpaceOnUse" color-interpolation-filters="sRGB">
<feFlood flood-opacity="0" result="BackgroundImageFix"/>
<feColorMatrix in="SourceAlpha" type="matrix" values="0 0 0 0 0 0 0 0 0 0 0 0 0 0 0 0 0 0 127 0"/>
<feMorphology radius="2" operator="dilate" in="SourceAlpha" result="effect1_dropShadow"/>
<feOffset dy="6"/>
<feGaussianBlur stdDeviation="5.5"/>
<feColorMatrix type="matrix" values="0 0 0 0 1 0 0 0 0 1 0 0 0 0 1 0 0 0 0.5 0"/>
<feBlend mode="normal" in2="BackgroundImageFix" result="effect1_dropShadow"/>
<feBlend mode="normal" in="SourceGraphic" in2="effect1_dropShadow" result="shape"/>
</filter>
<filter id="filter1_d" x="314.138" y="20.8113" width="75.0236" height="50.5118" filterUnits="userSpaceOnUse" color-interpolation-filters="sRGB">
<feFlood flood-opacity="0" result="BackgroundImageFix"/>
<feColorMatrix in="SourceAlpha" type="matrix" values="0 0 0 0 0 0 0 0 0 0 0 0 0 0 0 0 0 0 127 0"/>
<feMorphology radius="2" operator="dilate" in="SourceAlpha" result="effect1_dropShadow"/>
<feOffset dy="6"/>
<feGaussianBlur stdDeviation="5.5"/>
<feColorMatrix type="matrix" values="0 0 0 0 1 0 0 0 0 1 0 0 0 0 1 0 0 0 0.5 0"/>
<feBlend mode="normal" in2="BackgroundImageFix" result="effect1_dropShadow"/>
<feBlend mode="normal" in="SourceGraphic" in2="effect1_dropShadow" result="shape"/>
</filter>
<filter id="filter2_d" x="492.32" y="20.8113" width="75.0236" height="50.5118" filterUnits="userSpaceOnUse" color-interpolation-filters="sRGB">
<feFlood flood-opacity="0" result="BackgroundImageFix"/>
<feColorMatrix in="SourceAlpha" type="matrix" values="0 0 0 0 0 0 0 0 0 0 0 0 0 0 0 0 0 0 127 0"/>
<feMorphology radius="2" operator="dilate" in="SourceAlpha" result="effect1_dropShadow"/>
<feOffset dy="6"/>
<feGaussianBlur stdDeviation="5.5"/>
<feColorMatrix type="matrix" values="0 0 0 0 1 0 0 0 0 1 0 0 0 0 1 0 0 0 0.5 0"/>
<feBlend mode="normal" in2="BackgroundImageFix" result="effect1_dropShadow"/>
<feBlend mode="normal" in="SourceGraphic" in2="effect1_dropShadow" result="shape"/>
</filter>
</defs>
</svg>
