<svg width="450" height="150" viewBox="0 0 450 150" fill="none" xmlns="http://www.w3.org/2000/svg">
<rect opacity="0.5" width="450" height="150" rx="16" fill="url(#paint0_linear)"/>
<g opacity="0.5" filter="url(#filter0_d)">
<path d="M462.973 92.8035C462.969 92.7013 462.96 92.6004 462.954 92.4982C462.94 92.2557 462.921 92.0134 462.898 91.7715C462.89 91.6783 462.88 91.5851 462.869 91.4926L462.864 91.44C462.837 91.2011 462.806 90.9636 462.773 90.7274C462.759 90.6296 462.744 90.5318 462.728 90.4342C462.685 90.1653 462.638 89.8984 462.585 89.6335L462.55 89.4547C461.467 84.2405 458.489 79.6134 454.191 76.4685C449.894 73.3237 444.582 71.8846 439.285 72.4297C433.988 72.9749 429.081 75.4655 425.514 79.4197C421.947 83.3739 419.973 88.5106 419.975 93.8362V120.729C419.975 122.155 419.408 123.523 418.4 124.532C417.878 124.957 417.54 124.995 416.844 124.532C415.836 123.523 415.269 122.155 415.269 120.729V99.2147H271.403V120.729C271.403 122.155 270.837 123.523 269.828 124.532C269.387 124.974 269.168 125.099 268.714 125.099C268.378 125.099 268.042 124.974 267.6 124.532C266.592 123.523 266.025 122.155 266.025 120.729V93.8362C266.027 88.5106 264.053 83.3739 260.486 79.4197C256.919 75.4655 252.012 72.9749 246.715 72.4297C241.418 71.8846 236.106 73.3237 231.809 76.4685C227.511 79.6134 224.533 84.2405 223.45 89.4547L223.415 89.6335C223.362 89.8988 223.315 90.1658 223.272 90.4342C223.256 90.5317 223.242 90.6292 223.227 90.7274C223.193 90.9636 223.163 91.2011 223.136 91.44C223.124 91.5503 223.112 91.6605 223.102 91.7715C223.078 92.0128 223.061 92.2555 223.046 92.4982C223.039 92.6004 223.031 92.7013 223.026 92.8035C223.01 93.1464 223 93.4892 223 93.8362C223 98.6063 225.113 106.706 228.378 109.972C230.731 112.325 234.429 114.006 239.134 114.673V142.243C239.138 145.095 240.272 147.829 242.288 149.846C244.305 151.862 247.039 152.997 249.891 153H436.109C438.961 152.997 441.695 151.862 443.712 149.846C445.728 147.829 446.862 145.095 446.866 142.243V114.673C451.484 113.479 455.574 110.784 458.494 107.013C461.415 103.241 463 98.6063 463 93.8362C463 93.4899 462.99 93.1457 462.973 92.8035Z" fill="#263238"/>
<path fill-rule="evenodd" clip-rule="evenodd" d="M233.756 66.7284C235.533 66.4264 237.332 66.2735 239.134 66.2712C246.758 66.2811 254.132 68.9854 259.955 73.9064C265.778 78.8274 269.674 85.6483 270.955 93.1638H415.717C416.421 88.9837 417.941 84.9832 420.192 81.3914C422.443 77.7995 425.38 74.6869 428.835 72.2315C432.29 69.7761 436.195 68.0262 440.328 67.0819C444.46 66.1376 448.737 66.0175 452.916 66.7284V60.8927C452.908 53.7627 450.072 46.9271 445.031 41.8855C439.99 36.8439 433.155 34.008 426.025 34H260.647C253.518 34.008 246.683 36.8439 241.641 41.8855C236.6 46.9271 233.764 53.7627 233.756 60.8927V66.7284ZM343.5 66C345.985 66 348 63.9853 348 61.5C348 59.0147 345.985 57 343.5 57C341.015 57 339 59.0147 339 61.5C339 63.9853 341.015 66 343.5 66ZM298 61.5C298 63.9853 295.985 66 293.5 66C291.015 66 289 63.9853 289 61.5C289 59.0147 291.015 57 293.5 57C295.985 57 298 59.0147 298 61.5ZM393.5 66C395.985 66 398 63.9853 398 61.5C398 59.0147 395.985 57 393.5 57C391.015 57 389 59.0147 389 61.5C389 63.9853 391.015 66 393.5 66Z" fill="#263238"/>
</g>
<defs>
<filter id="filter0_d" x="219" y="34" width="248" height="127" filterUnits="userSpaceOnUse" color-interpolation-filters="sRGB">
<feFlood flood-opacity="0" result="BackgroundImageFix"/>
<feColorMatrix in="SourceAlpha" type="matrix" values="0 0 0 0 0 0 0 0 0 0 0 0 0 0 0 0 0 0 127 0"/>
<feOffset dy="4"/>
<feGaussianBlur stdDeviation="2"/>
<feColorMatrix type="matrix" values="0 0 0 0 0 0 0 0 0 0 0 0 0 0 0 0 0 0 0.25 0"/>
<feBlend mode="normal" in2="BackgroundImageFix" result="effect1_dropShadow"/>
<feBlend mode="normal" in="SourceGraphic" in2="effect1_dropShadow" result="shape"/>
</filter>
<linearGradient id="paint0_linear" x1="0" y1="75" x2="450" y2="75" gradientUnits="userSpaceOnUse">
<stop stop-color="#38F9D7"/>
<stop offset="1" stop-color="#43E97B"/>
</linearGradient>
</defs>
</svg>
