<svg width="450" height="150" viewBox="0 0 450 150" fill="none" xmlns="http://www.w3.org/2000/svg">
<rect opacity="0.5" width="450" height="150" rx="16" fill="url(#paint0_linear)"/>
<g opacity="0.5" filter="url(#filter0_d)">
<path fill-rule="evenodd" clip-rule="evenodd" d="M329.283 64.3942L420.928 32.0577C421.64 29.9293 423.559 25.5261 425.541 24.9406C427.523 24.3552 434.04 21.904 437.05 20.7516C439.118 20.622 443.448 20.8021 444.225 22.5588L449.374 20.6847C450.479 20.7358 452.725 21.5044 452.872 24.17C453.184 26.9116 454.012 38.767 454.386 44.352C454.759 45.6893 454.573 48.6346 450.851 49.7173C446.931 51.0083 422.06 60.1399 410.114 64.5444C408.146 65.2609 402.84 66.988 402.026 75.3057C402.03 82.102 402.248 88.4806 402.356 90.8204C402.503 92.6364 401.628 96.8296 396.957 99.0736C392.286 101.318 383.518 104.871 379.718 106.368C376.826 107.534 371.261 110.839 372.131 114.737C372.56 118.932 373.609 127.908 374.08 131.872C374.273 133.501 375.279 137.146 377.762 138.689C379.187 140.72 378.929 144.723 375.706 146.235C373.128 147.446 354.541 154.052 345.57 157.204C343.528 156.305 337.927 152.339 339.552 144.439C341.781 133.601 341.498 95.1269 326.721 96.9363L319.907 99.4166C319.442 99.8688 318.088 99.6028 316.384 94.9207L312.56 84.4162C312.277 83.9527 312.116 82.9125 313.735 82.4593C315.353 82.0061 311.255 78.9434 309.169 76.9833C308.429 75.8931 308.246 72.561 311.577 71.3484C314.323 73.2381 319.348 76.6775 321.384 76.6163C322.764 74.7544 322.771 66.7643 325.497 65.7721C327.678 64.9784 329.071 64.7545 329.283 64.3942ZM391.942 71.1587L380.735 75.2375C379.039 75.8548 377.702 79.627 377.679 81.4481C377.746 82.1035 377.477 83.1533 379.646 86.8505C382.357 91.4719 384.35 91.766 381.321 92.8684C378.444 93.9156 372.731 85.2883 371.038 80.6363C367.828 82.6544 369.467 87.1563 369.877 93.4651C370.004 103.615 372.737 104.15 374.087 103.149C377.033 102.133 384.55 99.4768 391.048 96.9756C399.032 94.4095 397.185 85.5649 396.83 79.4062C396.103 71.3775 393.268 70.5626 391.942 71.1587Z" fill="#263238"/>
</g>
<defs>
<filter id="filter0_d" x="302" y="16" width="185.298" height="151.671" filterUnits="userSpaceOnUse" color-interpolation-filters="sRGB">
<feFlood flood-opacity="0" result="BackgroundImageFix"/>
<feColorMatrix in="SourceAlpha" type="matrix" values="0 0 0 0 0 0 0 0 0 0 0 0 0 0 0 0 0 0 127 0"/>
<feOffset dy="4"/>
<feGaussianBlur stdDeviation="2"/>
<feColorMatrix type="matrix" values="0 0 0 0 0 0 0 0 0 0 0 0 0 0 0 0 0 0 0.25 0"/>
<feBlend mode="normal" in2="BackgroundImageFix" result="effect1_dropShadow"/>
<feBlend mode="normal" in="SourceGraphic" in2="effect1_dropShadow" result="shape"/>
</filter>
<linearGradient id="paint0_linear" x1="0" y1="75" x2="450" y2="75" gradientUnits="userSpaceOnUse">
<stop stop-color="#38F9D7"/>
<stop offset="1" stop-color="#43E97B"/>
</linearGradient>
</defs>
</svg>
