<svg width="450" height="150" viewBox="0 0 450 150" fill="none" xmlns="http://www.w3.org/2000/svg">
<rect opacity="0.5" width="450" height="150" rx="16" fill="url(#paint0_linear)"/>
<g opacity="0.5" filter="url(#filter0_d)">
<path fill-rule="evenodd" clip-rule="evenodd" d="M487.97 24.4159L375.375 0.453501L356.245 90.5427V90.8884C349.676 121.763 369.613 152.177 400.614 158.743C431.615 165.31 462.27 145.495 468.839 114.505L487.97 24.4159ZM392.798 110.857C386.242 113.731 380.756 118.592 377.115 124.754L440.5 138.117C439.641 131.036 436.591 124.399 431.778 119.132C426.964 113.866 420.626 110.233 413.648 108.74C406.648 107.243 399.354 107.984 392.798 110.857ZM450.17 63.4699C442.218 61.7419 434.381 64.9676 430.693 71.0733C431.615 78.1008 437.377 84.2066 445.329 85.7042C453.397 87.5475 461.118 84.3218 464.921 78.3312C463.884 71.1885 458.122 65.0828 450.17 63.4699ZM393.815 51.4887C385.863 49.7606 378.141 52.9864 374.454 59.0922C375.375 66.1196 381.138 72.2254 389.09 74.1838C397.042 75.6815 404.763 72.3406 408.566 66.35C407.644 59.3226 401.536 53.1015 393.815 51.4887Z" fill="#263238"/>
<path d="M373.515 9.21629L322 20.2758L349.428 102.519L349.544 102.865C351.272 111.044 354.73 118.417 359.455 124.754C358.302 115.883 358.533 106.667 360.492 97.4503L357.927 82.6228C352.741 81.7012 347.469 78.3385 345.049 74.1912C345.741 67.1637 351.503 60.9427 359.455 59.0994H362.922L372.049 16.1161C372.51 13.9273 372.477 11.0595 373.515 9.21629Z" fill="#263238"/>
<path d="M393.815 4.37773L416.403 9.21629L414.559 0L393.815 4.37773Z" fill="#263238"/>
</g>
<defs>
<filter id="filter0_d" x="318" y="0" width="173.97" height="168" filterUnits="userSpaceOnUse" color-interpolation-filters="sRGB">
<feFlood flood-opacity="0" result="BackgroundImageFix"/>
<feColorMatrix in="SourceAlpha" type="matrix" values="0 0 0 0 0 0 0 0 0 0 0 0 0 0 0 0 0 0 127 0"/>
<feOffset dy="4"/>
<feGaussianBlur stdDeviation="2"/>
<feColorMatrix type="matrix" values="0 0 0 0 0 0 0 0 0 0 0 0 0 0 0 0 0 0 0.25 0"/>
<feBlend mode="normal" in2="BackgroundImageFix" result="effect1_dropShadow"/>
<feBlend mode="normal" in="SourceGraphic" in2="effect1_dropShadow" result="shape"/>
</filter>
<linearGradient id="paint0_linear" x1="0" y1="75" x2="450" y2="75" gradientUnits="userSpaceOnUse">
<stop stop-color="#38F9D7"/>
<stop offset="1" stop-color="#43E97B"/>
</linearGradient>
</defs>
</svg>
