<svg width="450" height="150" viewBox="0 0 450 150" fill="none" xmlns="http://www.w3.org/2000/svg">
<rect opacity="0.5" width="450" height="150" rx="16" fill="url(#paint0_linear)"/>
<g opacity="0.5" filter="url(#filter0_d)">
<path d="M394.342 109.092C394.342 99.247 413.6 87.2711 420.397 88.2944L330.743 25.242L330.744 25.3447L394.342 109.092Z" fill="#263238"/>
<path d="M343.201 67.1541C344.496 62.3482 345.467 56.6839 343.201 50.3723L330.953 48.3434L331.115 66.2353L343.201 67.1541Z" fill="#263238"/>
<path d="M327.573 47.7835L327.388 65.9519L331.115 66.2353L330.953 48.3434L327.573 47.7835Z" fill="#263238"/>
<path d="M316.822 46.0027C318.278 52.9617 319.249 57.0076 316.174 65.0995L327.388 65.9519L327.573 47.7835L316.822 46.0027Z" fill="#263238"/>
<path d="M315.041 67.6888C319.638 67.936 323.766 68.1785 327.363 68.3962L327.388 65.9519L316.174 65.0995H315.203C313.909 65.0995 314.07 67.6366 315.041 67.6888Z" fill="#263238"/>
<path d="M331.137 68.6269L331.115 66.2353L327.388 65.9519L327.363 68.3962C328.695 68.4768 329.954 68.5541 331.137 68.6269Z" fill="#263238"/>
<path d="M342.877 69.258C344.334 69.258 344.172 67.1541 343.201 67.1541L331.115 66.2353L331.137 68.6269C337.216 69.001 341.278 69.258 342.877 69.258Z" fill="#263238"/>
<path d="M330.933 46.1682L327.595 45.5836L327.573 47.7835L330.953 48.3434L330.933 46.1682Z" fill="#263238"/>
<path d="M330.578 7H327.988L327.946 11.2078L327.823 23.1837L327.749 30.4664L327.721 33.2176L327.681 37.1826L327.64 41.1476L327.595 45.5836L330.933 46.1682L330.744 25.3447L330.578 25.1257L330.743 25.242L330.578 7Z" fill="#263238"/>
<path d="M315.203 43.4133C313.747 43.4133 313.585 45.3554 314.88 45.679L316.822 46.0027L327.573 47.7835L327.595 45.5836L315.203 43.4133Z" fill="#263238"/>
<path d="M343.201 50.3723C344.172 50.5341 344.819 48.7539 343.848 48.4303L330.933 46.1682L330.953 48.3434L343.201 50.3723Z" fill="#263238"/>
<path d="M327.291 75.4179L302.418 74.6949C312.614 86.6238 314.006 100.929 304.684 119.818L326.879 115.857L327.291 75.4179Z" fill="#263238"/>
<path d="M356.472 110.576C362.039 101.498 361.003 82.7397 356.472 76.2662L331.199 75.5315L331.557 115.022L356.472 110.576Z" fill="#263238"/>
<path d="M327.291 75.4179L326.879 115.857L331.557 115.022L331.199 75.5315L327.291 75.4179Z" fill="#263238"/>
<path d="M331.173 72.6472L327.321 72.4904L327.291 75.4179L331.199 75.5315L331.173 72.6472Z" fill="#263238"/>
<path d="M356.472 76.2662C358.414 76.2662 358.414 73.6768 356.472 73.6768L331.173 72.6472L331.199 75.5315L356.472 76.2662Z" fill="#263238"/>
<path d="M331.137 68.6269C329.954 68.5541 328.695 68.4768 327.363 68.3962L327.321 72.4904L331.173 72.6472L331.137 68.6269Z" fill="#263238"/>
<path d="M300.8 71.4111C298.599 71.3215 298.696 74.6478 300.8 74.6478L302.418 74.6949L327.291 75.4179L327.321 72.4904L300.8 71.4111Z" fill="#263238"/>
<path d="M303.875 122.713C309.884 121.645 318.406 120.118 326.851 118.604L326.879 115.857L304.684 119.818L303.875 119.962C301.447 120.448 302.256 123.001 303.875 122.713Z" fill="#263238"/>
<path d="M356.472 113.327C358.802 112.809 358.09 110.252 356.472 110.576L331.557 115.022L331.582 117.756C343.966 115.537 355.104 113.543 356.472 113.327Z" fill="#263238"/>
<path d="M273.126 124.008L271.04 121.997L265.621 116.772L260.203 111.547L256.133 107.622L255 106.53C259.262 112.356 268.594 124.753 271.831 127.73C268.465 134.074 276.039 149.363 280.247 156.214C305.169 156.807 357.928 157.638 369.581 156.214C379.161 151.423 391.159 125.411 395.96 113.003L391.267 111.547C374.597 115.7 340.418 124.202 337.051 124.979C336.626 127.703 334.125 130.203 331.711 131.964L331.582 117.756L326.851 118.604L326.694 134.008L308.083 133.395C305.882 132.488 302.958 126.759 301.771 124.008H273.126Z" fill="#263238"/>
<path d="M331.557 115.022L326.879 115.857L326.851 118.604L331.582 117.756L331.557 115.022Z" fill="#263238"/>
<path d="M391.267 111.547L395.96 113.003L427.356 82.7397L420.397 88.2944L394.342 109.092L391.267 111.547Z" fill="#263238"/>
<path d="M307.759 23.3455C314.718 18.8141 322.162 25.7731 327.823 23.1837L327.946 11.2078C323.898 13.4087 320.893 12.5564 319.897 11.8551C315.106 7.58261 309.054 10.7222 306.626 12.8261C308.05 13.2145 307.975 20.0009 307.759 23.3455Z" fill="#263238"/>
<path d="M391.267 111.547C374.597 115.7 340.418 124.202 337.051 124.979C336.626 127.703 334.125 130.203 331.711 131.964L331.582 117.756M391.267 111.547L395.96 113.003M391.267 111.547L420.397 88.2944M391.267 111.547L394.342 109.092M395.96 113.003C391.159 125.411 379.161 151.423 369.581 156.214C357.928 157.638 305.169 156.807 280.247 156.214C276.039 149.363 268.465 134.074 271.831 127.73C268.594 124.753 259.262 112.356 255 106.53L256.133 107.622M395.96 113.003L427.356 82.7397L420.397 88.2944M420.397 88.2944C413.6 87.2711 394.342 99.2471 394.342 109.092M420.397 88.2944L330.743 25.242M420.397 88.2944L394.342 109.092M394.342 109.092L330.744 25.3447M356.472 76.2662C358.414 76.2662 358.414 73.6768 356.472 73.6768L331.173 72.6472M356.472 76.2662C361.003 82.7397 362.039 101.498 356.472 110.576M356.472 76.2662L331.199 75.5315M356.472 110.576C358.09 110.252 358.802 112.809 356.472 113.327C355.104 113.543 343.966 115.537 331.582 117.756M356.472 110.576L331.557 115.022M302.418 74.6949L300.8 74.6478C298.696 74.6478 298.599 71.3215 300.8 71.4111L327.321 72.4904M302.418 74.6949C312.614 86.6238 314.006 100.929 304.684 119.818M302.418 74.6949L327.291 75.4179M304.684 119.818L303.875 119.962C301.447 120.448 302.256 123.001 303.875 122.713C309.884 121.645 318.406 120.118 326.851 118.604M304.684 119.818L326.879 115.857M343.201 50.3723C344.172 50.5341 344.819 48.7539 343.848 48.4303L330.933 46.1682M343.201 50.3723C345.467 56.6839 344.496 62.3482 343.201 67.1541M343.201 50.3723L330.953 48.3434M343.201 67.1541C344.172 67.1541 344.334 69.258 342.877 69.258C341.278 69.258 337.216 69.001 331.137 68.6269M343.201 67.1541L331.115 66.2353M316.822 46.0027L314.88 45.679C313.585 45.3554 313.747 43.4133 315.203 43.4133L327.595 45.5836M316.822 46.0027C318.278 52.9617 319.249 57.0076 316.174 65.0995M316.822 46.0027L327.573 47.7835M316.174 65.0995H315.203C313.909 65.0995 314.07 67.6366 315.041 67.6888C319.638 67.936 323.766 68.1785 327.363 68.3962M316.174 65.0995L327.388 65.9519M330.743 25.242L330.744 25.3447M330.743 25.242L330.578 7H327.988L327.946 11.2078M330.743 25.242L330.578 25.1257L330.744 25.3447M330.744 25.3447L330.933 46.1682M330.953 48.3434L331.115 66.2353M330.953 48.3434L327.573 47.7835M330.953 48.3434L330.933 46.1682M331.115 66.2353L327.388 65.9519M331.115 66.2353L331.137 68.6269M327.573 47.7835L327.388 65.9519M327.573 47.7835L327.595 45.5836M327.388 65.9519L327.363 68.3962M327.363 68.3962C328.695 68.4768 329.954 68.5541 331.137 68.6269M327.363 68.3962L327.321 72.4904M331.137 68.6269L331.173 72.6472M330.933 46.1682L327.595 45.5836M327.595 45.5836L327.64 41.1476M327.291 75.4179L326.879 115.857M327.291 75.4179L331.199 75.5315M327.291 75.4179L327.321 72.4904M326.879 115.857L331.557 115.022M326.879 115.857L326.851 118.604M331.199 75.5315L331.557 115.022M331.199 75.5315L331.173 72.6472M331.557 115.022L331.582 117.756M331.173 72.6472L327.321 72.4904M326.851 118.604L326.694 134.008L308.083 133.395C305.882 132.488 302.958 126.759 301.771 124.008H273.126L271.04 121.997M326.851 118.604C328.436 118.32 330.019 118.036 331.582 117.756M326.851 118.604L331.582 117.756M256.133 107.622L260.203 111.547M256.133 107.622L260.752 102.646M327.749 30.4664L327.721 33.2176M327.749 30.4664L322.324 36.3111M327.749 30.4664L327.823 23.1837M271.04 121.997L265.621 116.772M271.04 121.997L275.715 115.319M327.64 41.1476L327.681 37.1826M327.64 41.1476L322.324 36.3111M327.64 41.1476L316.822 56.6012M260.203 111.547L327.721 33.2176M260.203 111.547L265.621 116.772M327.721 33.2176L327.681 37.1826M265.621 116.772L327.681 37.1826M322.324 36.3111L309.272 50.3723M309.272 50.3723L316.822 56.6012M309.272 50.3723L298.607 61.8627M316.822 56.6012L307.7 69.6309M298.607 61.8627L307.7 69.6309M298.607 61.8627L281.332 80.474M307.7 69.6309L293.311 90.1842M281.332 80.474L293.311 90.1842M281.332 80.474L271.868 90.6697M293.311 90.1842L285.267 101.675M271.868 90.6697L285.267 101.675M271.868 90.6697L260.752 102.646M285.267 101.675L275.715 115.319M260.752 102.646L275.715 115.319M327.823 23.1837C322.162 25.7731 314.718 18.8141 307.759 23.3455C307.975 20.0009 308.05 13.2145 306.626 12.8261C309.054 10.7222 315.106 7.58261 319.897 11.8551C320.893 12.5564 323.898 13.4087 327.946 11.2078M327.823 23.1837L327.946 11.2078" stroke="#263238"/>
</g>
<defs>
<filter id="filter0_d" x="250.596" y="6.5" width="181.107" height="159" filterUnits="userSpaceOnUse" color-interpolation-filters="sRGB">
<feFlood flood-opacity="0" result="BackgroundImageFix"/>
<feColorMatrix in="SourceAlpha" type="matrix" values="0 0 0 0 0 0 0 0 0 0 0 0 0 0 0 0 0 0 127 0"/>
<feOffset dy="4"/>
<feGaussianBlur stdDeviation="2"/>
<feColorMatrix type="matrix" values="0 0 0 0 0 0 0 0 0 0 0 0 0 0 0 0 0 0 0.25 0"/>
<feBlend mode="normal" in2="BackgroundImageFix" result="effect1_dropShadow"/>
<feBlend mode="normal" in="SourceGraphic" in2="effect1_dropShadow" result="shape"/>
</filter>
<linearGradient id="paint0_linear" x1="0" y1="75" x2="450" y2="75" gradientUnits="userSpaceOnUse">
<stop stop-color="#38F9D7"/>
<stop offset="1" stop-color="#43E97B"/>
</linearGradient>
</defs>
</svg>
