<svg width="450" height="150" viewBox="0 0 450 150" fill="none" xmlns="http://www.w3.org/2000/svg">
<rect opacity="0.5" width="450" height="150" rx="16" fill="url(#paint0_linear)"/>
<g opacity="0.5" filter="url(#filter0_d)">
<path fill-rule="evenodd" clip-rule="evenodd" d="M487.97 22.4159L375.375 -1.5465L356.245 88.5427V88.8884C349.676 119.763 369.613 150.177 400.614 156.743C431.615 163.31 462.27 143.495 468.839 112.505L487.97 22.4159ZM426.189 132.161C432.745 129.288 438.231 124.427 441.872 118.265L378.487 104.902C379.346 111.983 382.396 118.62 387.209 123.887C392.023 129.153 398.361 132.786 405.339 134.279C412.339 135.776 419.633 135.035 426.189 132.161ZM450.17 61.4699C442.218 59.7419 434.381 62.9676 430.693 69.0733C431.615 76.1008 437.377 82.2066 445.329 83.7042C453.397 85.5475 461.118 82.3218 464.921 76.3312C463.884 69.1885 458.122 63.0828 450.17 61.4699ZM393.815 49.4887C385.863 47.7606 378.141 50.9864 374.454 57.0922C375.375 64.1196 381.138 70.2254 389.09 72.1838C397.042 73.6815 404.763 70.3406 408.566 64.35C407.644 57.3226 401.536 51.1015 393.815 49.4887Z" fill="#263238"/>
<path d="M373.515 7.21629L322 18.2758L349.428 100.519L349.544 100.865C351.272 109.044 354.73 116.417 359.455 122.754C358.302 113.883 358.533 104.667 360.492 95.4503L357.927 80.6228C352.741 79.7012 347.469 76.3385 345.049 72.1912C345.741 65.1637 351.503 58.9427 359.455 57.0994H362.922L372.049 14.1161C372.51 11.9273 372.477 9.05955 373.515 7.21629Z" fill="#263238"/>
<path d="M393.815 2.37773L416.403 7.21629L414.559 -2L393.815 2.37773Z" fill="#263238"/>
</g>
<defs>
<filter id="filter0_d" x="318" y="-2" width="173.97" height="168" filterUnits="userSpaceOnUse" color-interpolation-filters="sRGB">
<feFlood flood-opacity="0" result="BackgroundImageFix"/>
<feColorMatrix in="SourceAlpha" type="matrix" values="0 0 0 0 0 0 0 0 0 0 0 0 0 0 0 0 0 0 127 0"/>
<feOffset dy="4"/>
<feGaussianBlur stdDeviation="2"/>
<feColorMatrix type="matrix" values="0 0 0 0 0 0 0 0 0 0 0 0 0 0 0 0 0 0 0.25 0"/>
<feBlend mode="normal" in2="BackgroundImageFix" result="effect1_dropShadow"/>
<feBlend mode="normal" in="SourceGraphic" in2="effect1_dropShadow" result="shape"/>
</filter>
<linearGradient id="paint0_linear" x1="0" y1="75" x2="450" y2="75" gradientUnits="userSpaceOnUse">
<stop stop-color="#38F9D7"/>
<stop offset="1" stop-color="#43E97B"/>
</linearGradient>
</defs>
</svg>
