<svg width="450" height="151" viewBox="0 0 450 151" fill="none" xmlns="http://www.w3.org/2000/svg">
<rect opacity="0.5" y="0.00341797" width="450" height="150" rx="16" fill="url(#paint0_linear)"/>
<g opacity="0.5" filter="url(#filter0_d)">
<path d="M397 145C392.938 145 388.302 143.516 383.094 140.547C377.885 137.578 372.599 133.281 367.234 127.656C361.87 122.031 356.922 115.625 352.391 108.438C347.859 101.25 344.161 92.9427 341.297 83.5156C338.432 74.0885 337 64.5833 337 55C337 44.8958 338.276 35.625 340.828 27.1875C343.38 18.75 347.104 11.3802 352 5.07812C356.896 -1.22396 363.172 -6.14583 370.828 -9.6875C378.484 -13.2292 387.208 -15 397 -15C406.792 -15 415.516 -13.2292 423.172 -9.6875C430.828 -6.14583 437.104 -1.22396 442 5.07812C446.896 11.3802 450.62 18.75 453.172 27.1875C455.724 35.625 457 44.8958 457 55C457 64.5833 455.568 74.0885 452.703 83.5156C449.839 92.9427 446.141 101.25 441.609 108.438C437.078 115.625 432.13 122.031 426.766 127.656C421.401 133.281 416.115 137.578 410.906 140.547C405.698 143.516 401.062 145 397 145ZM377 85C373.146 80.1042 368.51 76.3802 363.094 73.8281C357.677 71.276 352.312 70 347 70C347 74.8958 348.458 80.651 351.375 87.2656C354.292 93.8802 357.833 99.7917 362 105C363.979 107.396 365.88 109.323 367.703 110.781C369.526 112.24 371.609 113.255 373.953 113.828C376.297 114.401 378.25 114.74 379.812 114.844C381.375 114.948 383.771 115 387 115C387 103.333 383.667 93.3333 377 85ZM417 85C410.333 93.3333 407 103.333 407 115C410.229 115 412.625 114.948 414.188 114.844C415.75 114.74 417.703 114.401 420.047 113.828C422.391 113.255 424.474 112.24 426.297 110.781C428.12 109.323 430.021 107.396 432 105C436.167 99.7917 439.708 93.8802 442.625 87.2656C445.542 80.651 447 74.8958 447 70C441.688 70 436.323 71.276 430.906 73.8281C425.49 76.3802 420.854 80.1042 417 85Z" fill="#263238"/>
</g>
<defs>
<filter id="filter0_d" x="333" y="-15" width="128" height="168" filterUnits="userSpaceOnUse" color-interpolation-filters="sRGB">
<feFlood flood-opacity="0" result="BackgroundImageFix"/>
<feColorMatrix in="SourceAlpha" type="matrix" values="0 0 0 0 0 0 0 0 0 0 0 0 0 0 0 0 0 0 127 0"/>
<feOffset dy="4"/>
<feGaussianBlur stdDeviation="2"/>
<feColorMatrix type="matrix" values="0 0 0 0 0 0 0 0 0 0 0 0 0 0 0 0 0 0 0.25 0"/>
<feBlend mode="normal" in2="BackgroundImageFix" result="effect1_dropShadow"/>
<feBlend mode="normal" in="SourceGraphic" in2="effect1_dropShadow" result="shape"/>
</filter>
<linearGradient id="paint0_linear" x1="0" y1="75.0034" x2="450" y2="75.0034" gradientUnits="userSpaceOnUse">
<stop stop-color="#38F9D7"/>
<stop offset="1" stop-color="#43E97B"/>
</linearGradient>
</defs>
</svg>
