<svg width="450" height="150" viewBox="0 0 450 150" fill="none" xmlns="http://www.w3.org/2000/svg">
<rect opacity="0.5" width="450" height="150" rx="16" fill="url(#paint0_linear)"/>
<g opacity="0.5" filter="url(#filter0_d)">
<path d="M391.535 155H373.156V97.0021C373.156 101.303 378.091 101.259 378.648 97.6818C378.665 97.4486 378.682 97.222 378.699 97.0021C378.699 97.2412 378.681 97.4678 378.648 97.6818C377.906 107.671 376.594 129.545 380.157 140.537C382.608 150.705 389.104 154.416 391.535 155Z" fill="#263238"/>
<path d="M364.55 155H346.172C348.603 154.416 355.098 150.705 357.549 140.537C361.112 129.545 359.801 107.671 359.058 97.6818C359.025 97.4678 359.007 97.2412 359.007 97.0021C359.024 97.222 359.041 97.4487 359.058 97.6818C359.615 101.259 364.55 101.303 364.55 97.0021V155Z" fill="#263238"/>
<path d="M399.995 87.6523C388.792 93.4959 373.934 88.5289 367.905 85.3149C357.111 91.7427 349.235 92.3274 339.024 87.6523C335.232 104.307 357.549 92.3274 349.235 112.488C323.271 122.714 319.771 99.9241 319.771 92.3274C306.06 99.3399 289.431 85.3149 290.015 73.3357C292.057 51.1301 313.061 54.9283 319.771 54.9283C319.771 46.7472 307.324 45.2863 301.1 45.5785C300.42 44.9941 297.016 45.5785 301.1 31.2616C312.186 14.8996 328.231 22.7883 333.482 22.7883C333.482 13.7308 345.151 1.16694 370.239 2.04348C395.327 2.92002 397.077 9.93241 409.038 22.7883C443.753 13.7308 445.106 54.4075 439.085 47.6237C434.418 42.3644 422.749 42.3644 420.999 47.6237C419.248 35.0599 415.164 31.5537 402.912 25.4179C380.741 20.1586 376.948 32.7224 375.198 42.3644C380.741 35.0598 388.617 30.3849 399.995 34.4755C411.372 38.566 413.122 49.6688 412.83 57.2655C434.126 47.6235 451.63 56.0968 449.879 75.6729C448.129 95.249 429.459 98.1708 418.957 95.5412C412.83 127.097 380.157 106.644 390.076 98.1708C399.995 101.677 405.829 89.6978 399.995 87.6523Z" fill="#263238"/>
</g>
<defs>
<filter id="filter0_d" x="286" y="2" width="168" height="161" filterUnits="userSpaceOnUse" color-interpolation-filters="sRGB">
<feFlood flood-opacity="0" result="BackgroundImageFix"/>
<feColorMatrix in="SourceAlpha" type="matrix" values="0 0 0 0 0 0 0 0 0 0 0 0 0 0 0 0 0 0 127 0"/>
<feOffset dy="4"/>
<feGaussianBlur stdDeviation="2"/>
<feColorMatrix type="matrix" values="0 0 0 0 0 0 0 0 0 0 0 0 0 0 0 0 0 0 0.25 0"/>
<feBlend mode="normal" in2="BackgroundImageFix" result="effect1_dropShadow"/>
<feBlend mode="normal" in="SourceGraphic" in2="effect1_dropShadow" result="shape"/>
</filter>
<linearGradient id="paint0_linear" x1="0" y1="75" x2="450" y2="75" gradientUnits="userSpaceOnUse">
<stop stop-color="#38F9D7"/>
<stop offset="1" stop-color="#43E97B"/>
</linearGradient>
</defs>
</svg>
