<svg width="450" height="150" viewBox="0 0 450 150" fill="none" xmlns="http://www.w3.org/2000/svg">
<rect opacity="0.5" width="450" height="150" rx="16" fill="url(#paint0_linear)"/>
<g opacity="0.5" filter="url(#filter0_d)">
<path d="M412.499 75.0845C412.684 75.9732 412.805 76.9184 412.858 77.921C415.194 75.4182 421.734 75.5184 423.87 77.921C423.87 76.9538 423.964 76.0325 424.14 75.1586C424.145 75.1339 424.15 75.1092 424.155 75.0845C422.02 72.6819 414.835 72.5818 412.499 75.0845Z" fill="#263238"/>
<path fill-rule="evenodd" clip-rule="evenodd" d="M438.887 91.9366C446.895 91.9366 452.068 84.9288 452.068 77.921C452.068 76.9668 451.957 76.0157 451.746 75.0845C450.41 69.1771 445.084 64.0723 438.887 64.0723C432.519 64.0723 425.625 68.0152 424.155 75.0845C424.15 75.1092 424.145 75.1339 424.14 75.1586C423.964 76.0325 423.87 76.9538 423.87 77.921C423.87 86.5973 430.878 91.9366 438.887 91.9366ZM438.887 89.267C445.894 89.267 449.398 82.7597 449.398 76.9199C449.398 72.1281 444.726 67.0756 438.887 67.0756C431.879 67.0756 426.873 70.7464 426.873 76.9199C426.873 84.762 431.378 89.267 438.887 89.267Z" fill="#263238"/>
<path fill-rule="evenodd" clip-rule="evenodd" d="M397.841 91.9366C406.017 91.9366 412.858 85.9299 412.858 77.921C412.805 76.9184 412.684 75.9732 412.499 75.0845C410.937 67.544 404.856 64.0723 397.841 64.0723C391.167 64.0723 384.827 69.0779 384.827 77.921C384.815 78.0879 384.806 78.2548 384.801 78.4216C384.582 85.2586 389.86 91.9366 397.841 91.9366ZM399.51 89.1001C406.517 89.1001 410.021 82.5929 410.021 76.7531C410.021 71.9613 405.349 66.9088 399.51 66.9088C392.502 66.9088 387.496 70.5795 387.496 76.7531C387.496 84.5951 392.001 89.1001 399.51 89.1001Z" fill="#263238"/>
<path fill-rule="evenodd" clip-rule="evenodd" d="M418.03 -1C443.128 0.334816 474.889 19.1891 465.011 72.5818C458.337 117.298 447.062 146.664 419.031 149C389.332 146.998 373.243 121.636 370.239 72.5818C367.553 28.6997 387.733 -1 418.03 -1ZM377.986 56.564C377.207 45.1624 378.51 19.4513 392.335 16.6863C397.34 15.6852 407.602 26.8325 418.03 26.5306C433.047 27.0311 439.22 15.5184 444.726 16.6863C448.564 18.5217 458.075 24.6952 457.574 39.3782C457.174 47.7875 458.964 61.3471 459.91 67.0756C459.856 68.9146 459.753 71.1466 459.591 73.5829C458.91 83.8197 457.187 97.6632 453.736 101.113C449.465 104.584 447.841 105.785 447.563 105.952C447.563 116.798 439.721 130.813 438.887 111.625C436.717 108.455 428.709 107.454 424.537 107.954C418.197 117.298 413.692 109.289 412.357 107.954C411.022 106.62 397.841 108.789 397.841 111.792C396.84 132.315 389.165 114.628 389.165 106.286C386.829 105.952 382.491 101.113 381.323 97.109C380.791 95.2864 380.018 86.3563 379.318 76.7531C379.172 74.7607 379.03 72.7393 378.894 70.7464C378.532 65.4614 378.212 60.3767 377.986 56.564ZM417.863 125.808C414.526 124.973 409.187 123.305 407.018 123.972C406.017 126.976 410.622 131.948 409.02 133.149C407.018 134.651 399.843 134.317 398.842 130.146C397.841 125.974 399.785 118.541 403.681 117.799C407.185 117.131 410.188 118.633 417.863 119.3C424.137 117.699 430.043 117.632 432.213 117.799C433.547 118.466 434.882 119.968 436.718 125.808C439.205 133.723 430.617 133.729 428.875 133.149C426.039 132.204 430.377 127.81 429.71 124.473C428.709 122.637 420.7 125.474 417.863 125.808Z" fill="#263238"/>
<path d="M381.323 75.4182C379.33 74.9084 378.894 70.7464 378.894 70.7464C379.03 72.7393 379.172 74.7607 379.318 76.7531C379.318 76.7531 379.861 77.9313 380.488 78.4216C381.815 79.4588 384.801 78.4216 384.801 78.4216C384.806 78.2548 384.815 78.0879 384.827 77.921C384.827 77.0491 384.888 76.2144 385.006 75.4182H383.075C383.075 75.4182 381.985 75.5879 381.323 75.4182Z" fill="#263238"/>
<path d="M451.746 75.0845C451.957 76.0157 452.068 76.9668 452.068 77.921C452.068 77.921 455.243 78.8163 456.907 77.921C458.661 76.9771 459.591 73.5829 459.591 73.5829C459.753 71.1466 459.856 68.9146 459.91 67.0756C459.91 67.0756 458.61 74.1751 455.071 75.0845C453.814 75.4077 451.746 75.0845 451.746 75.0845Z" fill="#263238"/>
</g>
<defs>
<filter id="filter0_d" x="366" y="-1" width="104.859" height="158" filterUnits="userSpaceOnUse" color-interpolation-filters="sRGB">
<feFlood flood-opacity="0" result="BackgroundImageFix"/>
<feColorMatrix in="SourceAlpha" type="matrix" values="0 0 0 0 0 0 0 0 0 0 0 0 0 0 0 0 0 0 127 0"/>
<feOffset dy="4"/>
<feGaussianBlur stdDeviation="2"/>
<feColorMatrix type="matrix" values="0 0 0 0 0 0 0 0 0 0 0 0 0 0 0 0 0 0 0.25 0"/>
<feBlend mode="normal" in2="BackgroundImageFix" result="effect1_dropShadow"/>
<feBlend mode="normal" in="SourceGraphic" in2="effect1_dropShadow" result="shape"/>
</filter>
<linearGradient id="paint0_linear" x1="0" y1="75" x2="450" y2="75" gradientUnits="userSpaceOnUse">
<stop stop-color="#38F9D7"/>
<stop offset="1" stop-color="#43E97B"/>
</linearGradient>
</defs>
</svg>
