<svg width="450" height="150" viewBox="0 0 450 150" fill="none" xmlns="http://www.w3.org/2000/svg">
<rect opacity="0.5" width="450" height="150" rx="16" fill="url(#paint0_linear)"/>
<g opacity="0.5" filter="url(#filter0_d)">
<path d="M367.594 78.8389C367.169 78.8335 366.756 78.6959 366.413 78.4453C366.07 78.1948 365.814 77.8436 365.679 77.4405C365.545 77.0375 365.54 76.6027 365.664 76.1964C365.788 75.7901 366.035 75.4325 366.372 75.1733C373.701 69.9881 382.527 67.3477 391.5 67.6561C398.566 67.6561 408.712 68.8514 416.734 74.6155C417.173 74.9302 417.47 75.4056 417.559 75.938C417.649 76.4705 417.524 77.0167 417.212 77.4576C416.889 77.8939 416.407 78.1857 415.87 78.2702C415.334 78.3546 414.786 78.225 414.344 77.9092C407.532 73.5801 399.566 71.4218 391.5 71.7201C383.448 71.4466 375.524 73.7957 368.922 78.4139C368.546 78.7131 368.074 78.8643 367.594 78.8389V78.8389Z" fill="#263238"/>
<path d="M423.986 97.5662C423.657 97.5632 423.334 97.4822 423.043 97.3298C422.753 97.1774 422.502 96.958 422.312 96.6897C417.717 90.2084 409.509 81.5756 391.5 81.5756C385.512 81.4248 379.576 82.7227 374.198 85.3588C368.819 87.9949 364.157 91.8912 360.608 96.7162C360.289 97.1507 359.812 97.4419 359.28 97.5265C358.747 97.611 358.203 97.4821 357.766 97.1678C357.536 97.008 357.342 96.8022 357.196 96.5635C357.05 96.3248 356.956 96.0584 356.918 95.7812C356.881 95.5039 356.901 95.222 356.979 94.9531C357.056 94.6842 357.188 94.4344 357.367 94.2194C361.302 88.9038 366.456 84.6115 372.396 81.7039C378.337 78.7962 384.888 77.3584 391.5 77.5116C406.402 77.5116 417.558 83.0366 425.606 94.3522C425.915 94.7964 426.035 95.3448 425.941 95.8775C425.846 96.4102 425.544 96.8837 425.102 97.1944C424.773 97.4221 424.386 97.5511 423.986 97.5662V97.5662Z" fill="#263238"/>
<path d="M381.619 147.343C381.207 147.341 380.805 147.216 380.464 146.984C380.123 146.753 379.859 146.424 379.706 146.042C379.6 145.792 379.546 145.522 379.548 145.251C379.55 144.979 379.607 144.71 379.717 144.461C379.826 144.212 379.985 143.989 380.185 143.804C380.384 143.619 380.619 143.476 380.875 143.386C392.483 138.923 399.469 129.786 399.469 118.922C399.548 117.855 399.396 116.783 399.024 115.781C398.652 114.778 398.067 113.867 397.311 113.111C396.554 112.354 395.644 111.77 394.641 111.398C393.638 111.025 392.567 110.873 391.5 110.953C386.559 110.953 384.169 113.609 383.531 119.851C383.235 122.771 381.818 125.462 379.579 127.359C377.341 129.256 374.454 130.212 371.525 130.025C369.95 130.048 368.388 129.742 366.937 129.128C365.487 128.514 364.18 127.604 363.101 126.457C362.021 125.31 361.193 123.951 360.667 122.466C360.142 120.981 359.932 119.403 360.05 117.833C360.197 109.62 363.586 101.799 369.478 96.076C375.37 90.3532 383.287 87.1932 391.5 87.2857C399.922 87.2855 408.001 90.6182 413.974 96.5558C419.946 102.493 423.326 110.553 423.375 118.975C423.187 124.905 421.937 130.752 419.683 136.24C419.466 136.73 419.069 137.117 418.574 137.32C418.079 137.523 417.524 137.526 417.027 137.329C416.78 137.228 416.555 137.078 416.367 136.889C416.178 136.7 416.029 136.476 415.928 136.229C415.826 135.982 415.775 135.717 415.777 135.45C415.778 135.183 415.833 134.919 415.937 134.673C417.977 129.68 419.119 124.365 419.311 118.975C419.276 111.627 416.329 104.592 411.115 99.414C405.902 94.2356 398.848 91.3356 391.5 91.3497C387.944 91.2793 384.41 91.911 381.099 93.2085C377.788 94.506 374.765 96.4439 372.204 98.9113C369.643 101.379 367.593 104.327 366.173 107.587C364.753 110.848 363.99 114.356 363.928 117.912C363.819 118.946 363.931 119.99 364.255 120.978C364.579 121.965 365.108 122.873 365.808 123.64C366.508 124.408 367.363 125.019 368.317 125.433C369.27 125.847 370.3 126.054 371.339 126.04C372.296 126.135 373.262 126.04 374.181 125.76C375.101 125.48 375.956 125.02 376.696 124.408C377.437 123.795 378.05 123.042 378.498 122.191C378.946 121.341 379.221 120.41 379.308 119.453C380.264 111.192 384.328 106.995 391.42 106.995C393.028 106.914 394.634 107.172 396.134 107.754C397.635 108.335 398.996 109.226 400.129 110.369C401.262 111.512 402.141 112.881 402.709 114.387C403.278 115.893 403.522 117.501 403.427 119.108C403.427 131.698 395.458 142.27 382.177 147.343C381.991 147.365 381.804 147.365 381.619 147.343V147.343Z" fill="#263238"/>
<path d="M401.514 145.432C401.005 145.424 400.516 145.235 400.133 144.9C399.943 144.713 399.793 144.489 399.69 144.243C399.587 143.997 399.535 143.733 399.535 143.466C399.535 143.199 399.587 142.935 399.69 142.689C399.793 142.443 399.943 142.219 400.133 142.032C406.109 135.837 409.475 127.583 409.536 118.975C409.536 114.832 408.261 101.311 391.739 101.311C389.332 101.227 386.931 101.622 384.679 102.475C382.426 103.328 380.365 104.621 378.617 106.279C377.053 107.826 375.817 109.672 374.982 111.708C374.147 113.743 373.73 115.926 373.756 118.125C373.749 118.663 373.531 119.177 373.148 119.555C372.765 119.932 372.249 120.144 371.711 120.144C371.444 120.148 371.178 120.098 370.93 119.998C370.682 119.898 370.457 119.75 370.266 119.562C370.076 119.375 369.925 119.151 369.822 118.904C369.719 118.657 369.666 118.393 369.666 118.125C369.624 115.404 370.124 112.702 371.137 110.176C372.149 107.649 373.653 105.349 375.563 103.41C377.679 101.379 380.177 99.788 382.913 98.7301C385.649 97.6722 388.568 97.1682 391.5 97.2473C407.65 97.2473 413.388 108.935 413.388 118.975C413.353 128.556 409.645 137.759 403.028 144.688C402.846 144.915 402.615 145.099 402.354 145.228C402.092 145.356 401.805 145.426 401.514 145.432V145.432Z" fill="#263238"/>
<path d="M372.003 138.684C370.619 138.681 369.235 138.601 367.859 138.445C367.589 138.422 367.326 138.345 367.086 138.219C366.846 138.092 366.634 137.919 366.461 137.709C366.289 137.5 366.161 137.257 366.084 136.997C366.007 136.737 365.983 136.464 366.013 136.195C366.043 135.925 366.127 135.664 366.26 135.427C366.392 135.191 366.571 134.983 366.785 134.816C366.999 134.65 367.245 134.528 367.507 134.458C367.769 134.387 368.042 134.37 368.311 134.408C374.925 135.151 380.131 133.983 383.823 130.901C385.525 129.379 386.902 127.529 387.869 125.461C388.837 123.393 389.376 121.15 389.455 118.868C389.468 118.6 389.535 118.336 389.653 118.094C389.771 117.852 389.937 117.636 390.14 117.46C390.344 117.283 390.581 117.15 390.838 117.068C391.094 116.986 391.365 116.957 391.633 116.983C392.168 117.023 392.667 117.271 393.024 117.672C393.381 118.073 393.568 118.598 393.545 119.134C393.433 121.975 392.745 124.764 391.521 127.33C390.297 129.896 388.564 132.187 386.427 134.062C382.326 137.279 377.209 138.919 372.003 138.684V138.684Z" fill="#263238"/>
</g>
<g opacity="0.5" filter="url(#filter1_d)">
<path d="M407.35 70.6962C415.415 70.6945 423.248 67.9947 429.601 63.0267L449.575 83L456 76.5755L436.026 56.6022C440.997 50.2489 443.698 42.4148 443.7 34.3481C443.7 14.3067 427.393 -2 407.35 -2C387.308 -2 371 14.3067 371 34.3481C371 54.3895 387.308 70.6962 407.35 70.6962ZM407.35 7.08702C422.385 7.08702 434.613 19.3136 434.613 34.3481C434.613 49.3826 422.385 61.6092 407.35 61.6092C392.315 61.6092 380.088 49.3826 380.088 34.3481C380.088 19.3136 392.315 7.08702 407.35 7.08702Z" fill="#263238"/>
</g>
<defs>
<filter id="filter0_d" x="345" y="65" width="93" height="93" filterUnits="userSpaceOnUse" color-interpolation-filters="sRGB">
<feFlood flood-opacity="0" result="BackgroundImageFix"/>
<feColorMatrix in="SourceAlpha" type="matrix" values="0 0 0 0 0 0 0 0 0 0 0 0 0 0 0 0 0 0 127 0"/>
<feOffset dy="4"/>
<feGaussianBlur stdDeviation="2"/>
<feColorMatrix type="matrix" values="0 0 0 0 0 0 0 0 0 0 0 0 0 0 0 0 0 0 0.25 0"/>
<feBlend mode="normal" in2="BackgroundImageFix" result="effect1_dropShadow"/>
<feBlend mode="normal" in="SourceGraphic" in2="effect1_dropShadow" result="shape"/>
</filter>
<filter id="filter1_d" x="367" y="-2" width="93" height="93" filterUnits="userSpaceOnUse" color-interpolation-filters="sRGB">
<feFlood flood-opacity="0" result="BackgroundImageFix"/>
<feColorMatrix in="SourceAlpha" type="matrix" values="0 0 0 0 0 0 0 0 0 0 0 0 0 0 0 0 0 0 127 0"/>
<feOffset dy="4"/>
<feGaussianBlur stdDeviation="2"/>
<feColorMatrix type="matrix" values="0 0 0 0 0 0 0 0 0 0 0 0 0 0 0 0 0 0 0.25 0"/>
<feBlend mode="normal" in2="BackgroundImageFix" result="effect1_dropShadow"/>
<feBlend mode="normal" in="SourceGraphic" in2="effect1_dropShadow" result="shape"/>
</filter>
<linearGradient id="paint0_linear" x1="0" y1="75" x2="450" y2="75" gradientUnits="userSpaceOnUse">
<stop stop-color="#38F9D7"/>
<stop offset="1" stop-color="#43E97B"/>
</linearGradient>
</defs>
</svg>
