<svg width="450" height="150" viewBox="0 0 450 150" fill="none" xmlns="http://www.w3.org/2000/svg">
<rect opacity="0.5" width="450" height="150" rx="16" fill="url(#paint0_linear)"/>
<g opacity="0.5" filter="url(#filter0_d)">
<path fill-rule="evenodd" clip-rule="evenodd" d="M404.362 13.3266C402.734 13.3973 400.776 14.0462 399.726 16.3466C395.795 24.9932 395.905 40.6918 397.432 51.769C397.416 51.7705 397.401 51.7718 397.39 51.7728C396.148 51.8913 395.004 52.4961 394.206 53.4552C393.408 54.4143 393.022 55.65 393.132 56.8927C393.356 59.4762 395.644 61.3873 398.24 61.1749C398.304 61.1664 400.771 60.9756 404.276 61.3766C413.242 64.0498 419.558 67.8091 422.825 70.222C423.575 71.0961 424.275 72.0534 424.912 73.1016C425.797 74.5644 427.354 75.3784 428.947 75.3784C429.784 75.3784 430.622 75.1542 431.401 74.6942C433.618 73.3493 434.338 70.4473 432.981 68.2177C432.468 67.3718 431.929 66.5687 431.368 65.8063C432.892 63.9418 434.773 61.8474 437.275 59.7591C440.804 57.0314 444.824 56.3382 448.373 55.7264C449.582 55.518 450.736 55.3189 451.797 55.0521C455.006 54.1673 456.493 52.1147 456.221 48.9059C455.466 45.8741 453.732 43.5973 450.972 42.0873C448.306 40.8251 445.769 39.3387 443.351 37.6399C441.947 35.5519 441.499 33.2515 442.018 30.7387C442.325 27.6952 441.345 25.1706 439.116 23.1416C436.686 21.7377 434.126 21.1007 431.412 21.2305L430.339 21.3248L430.209 21.3366C429.021 21.3957 427.827 21.5555 426.635 21.7151C425.447 21.874 424.261 22.0328 423.084 22.0916C421.409 22.1742 419.757 22.0562 418.094 21.4664C415.687 20.4047 413.611 18.8947 411.877 16.9364C409.435 14.9191 406.84 13.2086 404.362 13.3266ZM431.368 65.8063C419.817 50.1163 398.841 51.6436 397.432 51.769C397.881 55.0188 398.451 57.8709 399.077 60.0304C400.898 60.4326 402.631 60.8863 404.276 61.3766C409.66 61.9927 417.493 64.0056 422.825 70.222C424.039 71.118 424.832 71.8283 425.184 72.2284C426.673 71.7904 427.956 70.1445 429.711 67.8942C430.219 67.2439 430.765 66.5431 431.368 65.8063Z" fill="#263238"/>
<path fill-rule="evenodd" clip-rule="evenodd" d="M363.958 154.665C384.024 158.629 412.113 158.983 432.321 154.005C444.531 150.996 457.955 140.851 456.587 126.659C455.431 114.756 449.131 106.074 440.484 99.5266C439.139 98.5121 438.585 97.1318 438.561 95.7634C438.467 95.3859 438.443 94.9966 438.42 94.5601C438.113 89.11 431.578 78.0091 428.156 73.0072C414.401 52.9053 388.295 57.223 368.842 66.0825C348.74 75.2368 334.124 96.0111 332.448 118.071C330.797 139.872 345.177 150.949 363.958 154.665ZM402.156 105.145C405.523 108.079 409.086 111.498 411.02 114.646C413.997 119.909 413.271 124.995 409.048 128.618C404.677 132.363 399.021 133.378 392.585 131.627L391.589 134.384C391.412 134.869 390.873 135.12 390.389 134.943L383.339 132.382C382.855 132.205 382.613 131.674 382.781 131.189L383.98 127.883C382.381 126.923 381.078 126.01 380.213 125.358C376.595 122.62 373.2 119.117 371.126 115.988C371.014 115.82 370.977 115.615 371.014 115.419C371.06 115.214 371.181 115.037 371.349 114.935L378.251 110.52C378.412 110.419 378.605 110.383 378.791 110.419C378.978 110.455 379.144 110.561 379.255 110.715C379.851 111.544 383.348 115.335 387.524 118.074L390.706 109.262C390.301 108.916 389.893 108.569 389.488 108.225C388.989 107.802 388.495 107.382 388.017 106.971L387.543 106.552C383.822 103.301 380.883 100.73 379.878 96.9758C378.892 93.4548 380.288 89.5705 383.525 86.8505C387.655 83.3947 392.919 82.7334 399.551 84.792L400.696 81.6156C400.872 81.1312 401.412 80.8797 401.895 81.0567L408.937 83.609C409.43 83.7953 409.672 84.3262 409.495 84.8106L407.96 89.0582C412.174 91.9178 416.025 95.3923 417.801 97.3764C417.873 97.4534 417.927 97.5447 417.961 97.6442C417.994 97.7437 418.007 97.8493 417.997 97.9539C417.969 98.1681 417.866 98.3544 417.699 98.4848L411.709 102.947C411.411 103.161 411.002 103.142 410.741 102.891C409.141 101.419 407.095 99.7144 404.77 97.898L402.156 105.145ZM394.501 98.8109L396.426 93.4734C394.891 93.2033 393.133 93.3058 392.426 94.852C391.747 96.361 392.705 97.4136 394.501 98.8109ZM400.528 119.061C400.444 118.046 399.57 116.938 398.333 115.736L396.138 121.809C397.579 121.986 398.975 121.791 399.849 120.775C400.351 120.198 400.565 119.639 400.528 119.061Z" fill="#263238"/>
</g>
<defs>
<filter id="filter0_d" x="315" y="10" width="159" height="159" filterUnits="userSpaceOnUse" color-interpolation-filters="sRGB">
<feFlood flood-opacity="0" result="BackgroundImageFix"/>
<feColorMatrix in="SourceAlpha" type="matrix" values="0 0 0 0 0 0 0 0 0 0 0 0 0 0 0 0 0 0 127 0"/>
<feOffset dy="4"/>
<feGaussianBlur stdDeviation="2"/>
<feColorMatrix type="matrix" values="0 0 0 0 0 0 0 0 0 0 0 0 0 0 0 0 0 0 0.25 0"/>
<feBlend mode="normal" in2="BackgroundImageFix" result="effect1_dropShadow"/>
<feBlend mode="normal" in="SourceGraphic" in2="effect1_dropShadow" result="shape"/>
</filter>
<linearGradient id="paint0_linear" x1="0" y1="75" x2="450" y2="75" gradientUnits="userSpaceOnUse">
<stop stop-color="#38F9D7"/>
<stop offset="1" stop-color="#43E97B"/>
</linearGradient>
</defs>
</svg>
