<svg width="450" height="150" viewBox="0 0 450 150" fill="none" xmlns="http://www.w3.org/2000/svg">
<rect opacity="0.5" width="450" height="150" rx="16" fill="url(#paint0_linear)"/>
<g opacity="0.5" filter="url(#filter0_d)">
<path d="M280.417 15.75H435.583C442.443 15.75 447.833 21.0583 447.833 28V121.917C447.833 128.858 442.443 134.167 435.583 134.167H280.417C273.475 134.167 268.167 128.858 268.167 121.917V28C268.167 21.0583 273.475 15.75 280.417 15.75ZM339.298 48.4167V101.5L385.93 74.55L339.298 48.4167ZM400.875 150.5H314.308C311.858 150.5 310.225 148.867 310.225 146.417C310.225 143.967 311.858 142.333 314.308 142.333H401.692C404.142 142.333 405.775 143.967 405.775 146.417C405.775 148.867 403.325 150.5 400.875 150.5Z" fill="#263238"/>
</g>
<defs>
<filter id="filter0_d" x="264.167" y="15.75" width="187.667" height="142.75" filterUnits="userSpaceOnUse" color-interpolation-filters="sRGB">
<feFlood flood-opacity="0" result="BackgroundImageFix"/>
<feColorMatrix in="SourceAlpha" type="matrix" values="0 0 0 0 0 0 0 0 0 0 0 0 0 0 0 0 0 0 127 0"/>
<feOffset dy="4"/>
<feGaussianBlur stdDeviation="2"/>
<feColorMatrix type="matrix" values="0 0 0 0 0 0 0 0 0 0 0 0 0 0 0 0 0 0 0.25 0"/>
<feBlend mode="normal" in2="BackgroundImageFix" result="effect1_dropShadow"/>
<feBlend mode="normal" in="SourceGraphic" in2="effect1_dropShadow" result="shape"/>
</filter>
<linearGradient id="paint0_linear" x1="0" y1="75" x2="450" y2="75" gradientUnits="userSpaceOnUse">
<stop stop-color="#38F9D7"/>
<stop offset="1" stop-color="#43E97B"/>
</linearGradient>
</defs>
</svg>
