<svg width="450" height="150" viewBox="0 0 450 150" fill="none" xmlns="http://www.w3.org/2000/svg">
<rect opacity="0.5" width="450" height="150" rx="16" fill="url(#paint0_linear)"/>
<g opacity="0.5" filter="url(#filter0_d)">
<path d="M342.313 7L460.127 125.21C461.966 127.054 462.999 129.555 463 132.163C463.001 134.772 461.969 137.273 460.131 139.118C458.293 140.963 455.8 141.999 453.2 142C450.601 142.001 448.108 140.965 446.269 139.121L416.239 108.985L393.134 132.159L366.214 105.15V122.326C366.214 124.064 365.526 125.732 364.301 126.961C363.075 128.191 361.413 128.881 359.68 128.881C357.947 128.881 356.285 128.191 355.06 126.961C353.835 125.732 353.146 124.064 353.146 122.326V96.1035C353.144 94.4326 352.507 92.8255 351.364 91.6105C350.22 90.3955 348.658 89.6644 346.995 89.5665C345.333 89.4685 343.696 90.0112 342.419 91.0837C341.142 92.1561 340.321 93.6773 340.124 95.3365L340.078 96.1035V102.659C340.078 104.398 339.39 106.065 338.165 107.295C336.939 108.524 335.277 109.215 333.544 109.215C331.811 109.215 330.149 108.524 328.924 107.295C327.699 106.065 327.01 104.398 327.01 102.659V45.0617C326.739 31.3795 331.825 18.1359 341.176 8.17345L342.313 7V7Z" fill="#263238"/>
</g>
<defs>
<filter id="filter0_d" x="323" y="7" width="144" height="143" filterUnits="userSpaceOnUse" color-interpolation-filters="sRGB">
<feFlood flood-opacity="0" result="BackgroundImageFix"/>
<feColorMatrix in="SourceAlpha" type="matrix" values="0 0 0 0 0 0 0 0 0 0 0 0 0 0 0 0 0 0 127 0"/>
<feOffset dy="4"/>
<feGaussianBlur stdDeviation="2"/>
<feColorMatrix type="matrix" values="0 0 0 0 0 0 0 0 0 0 0 0 0 0 0 0 0 0 0.25 0"/>
<feBlend mode="normal" in2="BackgroundImageFix" result="effect1_dropShadow"/>
<feBlend mode="normal" in="SourceGraphic" in2="effect1_dropShadow" result="shape"/>
</filter>
<linearGradient id="paint0_linear" x1="0" y1="75" x2="450" y2="75" gradientUnits="userSpaceOnUse">
<stop stop-color="#38F9D7"/>
<stop offset="1" stop-color="#43E97B"/>
</linearGradient>
</defs>
</svg>
